<svg xmlns="http://www.w3.org/2000/svg" width="64" height="80" viewBox="0 0 64 80" fill="none"><g id="Blue Pin"><path id="Ellipse 4" d="M16.6966 48.6928C18.0847 51.5587 21.0468 53.4199 24.858 54.0221C28.6658 54.6239 33.2437 53.9477 37.6666 51.8053C42.0895 49.663 45.4581 46.4901 47.3465 43.1293C49.2366 39.7654 49.6125 36.2874 48.2243 33.4216C46.8362 30.5557 43.8741 28.6946 40.0629 28.0923C36.2551 27.4905 31.6773 28.1668 27.2543 30.3091C22.8314 32.4515 19.4629 35.6243 17.5744 38.9851C15.6843 42.349 15.3084 45.827 16.6966 48.6928Z" fill="#F9F2EC" stroke="#D94881" stroke-width="1.59234"></path><ellipse id="Ellipse 3" cx="11.1464" cy="9.55407" rx="11.1464" ry="9.55407" transform="matrix(-0.899981 0.435928 0.435928 0.899981 43.3428 25.1704)" fill="#F9F2EC"></ellipse><g id="Union"><mask id="path-3-inside-1_66_370" fill="white"><path fill-rule="evenodd" clip-rule="evenodd" d="M17.6375 30.5443L33.4014 22.9087L40.4916 37.5466L40.4116 37.5853C40.9585 40.107 38.5139 43.4332 34.5432 45.3566C30.5725 47.2799 26.4471 47.136 24.8074 45.1436L24.7277 45.1822L24.4183 44.5435C24.414 44.5347 24.4096 44.5258 24.4053 44.5169C24.401 44.5079 24.3967 44.499 24.3925 44.4901L17.6375 30.5443Z"></path></mask><path fill-rule="evenodd" clip-rule="evenodd" d="M17.6375 30.5443L33.4014 22.9087L40.4916 37.5466L40.4116 37.5853C40.9585 40.107 38.5139 43.4332 34.5432 45.3566C30.5725 47.2799 26.4471 47.136 24.8074 45.1436L24.7277 45.1822L24.4183 44.5435C24.414 44.5347 24.4096 44.5258 24.4053 44.5169C24.401 44.5079 24.3967 44.499 24.3925 44.4901L17.6375 30.5443Z" fill="#F9F2EC"></path><path d="M33.4014 22.9087L32.7072 21.4756L34.1403 20.7815L34.8344 22.2145L33.4014 22.9087ZM17.6375 30.5443L16.2044 31.2385L15.5103 29.8054L16.9433 29.1112L17.6375 30.5443ZM40.4916 37.5466L41.9247 36.8524L42.6188 38.2855L41.1857 38.9797L40.4916 37.5466ZM40.4116 37.5853L38.8555 37.9228L38.5899 36.6984L39.7175 36.1522L40.4116 37.5853ZM24.8074 45.1436L24.1133 43.7105L25.2408 43.1644L26.0369 44.1318L24.8074 45.1436ZM24.7277 45.1822L25.4219 46.6153L23.9888 47.3094L23.2946 45.8764L24.7277 45.1822ZM24.4183 44.5435L25.8448 43.8359L25.8481 43.8426L25.8514 43.8494L24.4183 44.5435ZM24.3925 44.4901L25.8255 43.7959L25.8288 43.8027L25.832 43.8095L24.3925 44.4901ZM34.0955 24.3418L18.3316 31.9774L16.9433 29.1112L32.7072 21.4756L34.0955 24.3418ZM39.0585 38.2407L31.9683 23.6028L34.8344 22.2145L41.9247 36.8524L39.0585 38.2407ZM39.7175 36.1522L39.7974 36.1135L41.1857 38.9797L41.1058 39.0184L39.7175 36.1522ZM33.849 43.9235C35.6379 43.057 37.0306 41.8974 37.8971 40.7407C38.7873 39.5522 38.9934 38.559 38.8555 37.9228L41.9678 37.2478C42.3767 39.1333 41.6339 41.0641 40.4459 42.65C39.2342 44.2676 37.4192 45.7328 35.2373 46.7896L33.849 43.9235ZM26.0369 44.1318C26.4506 44.6344 27.3577 45.0884 28.8421 45.1267C30.2869 45.1639 32.0602 44.7899 33.849 43.9235L35.2373 46.7896C33.0554 47.8465 30.7807 48.3623 28.7602 48.3103C26.7793 48.2593 24.8039 47.6452 23.5779 46.1555L26.0369 44.1318ZM24.0336 43.7491L24.1133 43.7105L25.5016 46.5767L25.4219 46.6153L24.0336 43.7491ZM25.8514 43.8494L26.1608 44.4881L23.2946 45.8764L22.9853 45.2377L25.8514 43.8494ZM25.8384 43.8227C25.8404 43.827 25.8426 43.8314 25.8448 43.8359L22.9919 45.2512C22.9853 45.2379 22.9787 45.2245 22.9722 45.211L25.8384 43.8227ZM25.832 43.8095C25.8342 43.814 25.8363 43.8184 25.8384 43.8227L22.9722 45.211C22.9656 45.1975 22.9592 45.184 22.9529 45.1706L25.832 43.8095ZM19.0706 29.8502L25.8255 43.7959L22.9594 45.1842L16.2044 31.2385L19.0706 29.8502Z" fill="#D94881" mask="url(#path-3-inside-1_66_370)"></path></g><rect id="Rectangle 4" width="3.18469" height="11.1464" transform="matrix(-0.899981 0.435928 0.435928 0.899981 32.6621 25.0361)" fill="#F9F2EC"></rect><path id="Ellipse 1" d="M8.8035 25.0918C11.4151 30.4835 19.2699 32.4073 26.5603 28.876C33.8506 25.3448 37.2105 17.9888 34.5989 12.5971C31.9874 7.20546 24.1325 5.28165 16.8422 8.8129C9.55185 12.3442 6.19191 19.7001 8.8035 25.0918Z" fill="#F9F2EC" stroke="#D94881" stroke-width="1.59234"></path><ellipse id="Ellipse 2" cx="6.36938" cy="5.57321" rx="6.36938" ry="5.57321" transform="matrix(-0.899981 0.435928 0.435928 0.899981 29.3262 7.18945)" fill="#F9F2EC"></ellipse><rect id="Rectangle 5" width="3.18469" height="20.7005" transform="matrix(-0.899981 0.435928 0.435928 0.899981 40.1631 51.481)" fill="#F9F2EC"></rect></g></svg>