<svg xmlns="http://www.w3.org/2000/svg" width="64" height="80" viewBox="0 0 64 80" fill="none"><g id="Blue Pin"><path id="Ellipse 4" d="M47.3034 48.6928C45.9153 51.5587 42.9532 53.4199 39.142 54.0221C35.3342 54.6239 30.7563 53.9477 26.3334 51.8053C21.9105 49.663 18.5419 46.4901 16.6535 43.1293C14.7634 39.7654 14.3875 36.2874 15.7757 33.4216C17.1638 30.5557 20.1259 28.6946 23.9371 28.0923C27.7449 27.4905 32.3227 28.1668 36.7457 30.3091C41.1686 32.4515 44.5371 35.6243 46.4256 38.9851C48.3157 42.349 48.6916 45.827 47.3034 48.6928Z" fill="#F9F2EC" stroke="#D94881" stroke-width="1.59234"></path><ellipse id="Ellipse 3" cx="26.5239" cy="38.6279" rx="11.1464" ry="9.55407" transform="rotate(25.8444 26.5239 38.6279)" fill="#F9F2EC"></ellipse><g id="Union"><mask id="path-3-inside-1_66_410" fill="white"><path fill-rule="evenodd" clip-rule="evenodd" d="M46.3625 30.5443L30.5986 22.9087L23.5084 37.5466L23.5884 37.5853C23.0415 40.107 25.4861 43.4332 29.4568 45.3566C33.4275 47.2799 37.5529 47.136 39.1926 45.1436L39.2723 45.1822L39.5817 44.5435C39.586 44.5347 39.5904 44.5258 39.5947 44.5169C39.599 44.5079 39.6033 44.499 39.6075 44.4901L46.3625 30.5443Z"></path></mask><path fill-rule="evenodd" clip-rule="evenodd" d="M46.3625 30.5443L30.5986 22.9087L23.5084 37.5466L23.5884 37.5853C23.0415 40.107 25.4861 43.4332 29.4568 45.3566C33.4275 47.2799 37.5529 47.136 39.1926 45.1436L39.2723 45.1822L39.5817 44.5435C39.586 44.5347 39.5904 44.5258 39.5947 44.5169C39.599 44.5079 39.6033 44.499 39.6075 44.4901L46.3625 30.5443Z" fill="#F9F2EC"></path><path d="M30.5986 22.9087L31.2928 21.4756L29.8597 20.7815L29.1656 22.2145L30.5986 22.9087ZM46.3625 30.5443L47.7956 31.2385L48.4897 29.8054L47.0567 29.1112L46.3625 30.5443ZM23.5084 37.5466L22.0753 36.8524L21.3812 38.2855L22.8143 38.9797L23.5084 37.5466ZM23.5884 37.5853L25.1445 37.9228L25.4101 36.6984L24.2825 36.1522L23.5884 37.5853ZM39.1926 45.1436L39.8867 43.7105L38.7592 43.1644L37.9631 44.1318L39.1926 45.1436ZM39.2723 45.1822L38.5781 46.6153L40.0112 47.3094L40.7054 45.8764L39.2723 45.1822ZM39.5817 44.5435L38.1552 43.8359L38.1519 43.8426L38.1486 43.8494L39.5817 44.5435ZM39.6075 44.4901L38.1745 43.7959L38.1712 43.8027L38.168 43.8095L39.6075 44.4901ZM29.9045 24.3418L45.6684 31.9774L47.0567 29.1112L31.2928 21.4756L29.9045 24.3418ZM24.9415 38.2407L32.0317 23.6028L29.1656 22.2145L22.0753 36.8524L24.9415 38.2407ZM24.2825 36.1522L24.2026 36.1135L22.8143 38.9797L22.8942 39.0184L24.2825 36.1522ZM30.151 43.9235C28.3621 43.057 26.9694 41.8974 26.1029 40.7407C25.2127 39.5522 25.0066 38.559 25.1445 37.9228L22.0322 37.2478C21.6233 39.1333 22.3661 41.0641 23.5541 42.65C24.7658 44.2676 26.5808 45.7328 28.7627 46.7896L30.151 43.9235ZM37.9631 44.1318C37.5494 44.6344 36.6423 45.0884 35.1579 45.1267C33.7131 45.1639 31.9398 44.7899 30.151 43.9235L28.7627 46.7896C30.9446 47.8465 33.2193 48.3623 35.2398 48.3103C37.2207 48.2593 39.1961 47.6452 40.4221 46.1555L37.9631 44.1318ZM39.9664 43.7491L39.8867 43.7105L38.4984 46.5767L38.5781 46.6153L39.9664 43.7491ZM38.1486 43.8494L37.8392 44.4881L40.7054 45.8764L41.0147 45.2377L38.1486 43.8494ZM38.1616 43.8227C38.1596 43.827 38.1574 43.8314 38.1552 43.8359L41.0081 45.2512C41.0147 45.2379 41.0213 45.2245 41.0278 45.211L38.1616 43.8227ZM38.168 43.8095C38.1658 43.814 38.1637 43.8184 38.1616 43.8227L41.0278 45.211C41.0344 45.1975 41.0408 45.184 41.0471 45.1706L38.168 43.8095ZM44.9294 29.8502L38.1745 43.7959L41.0406 45.1842L47.7956 31.2385L44.9294 29.8502Z" fill="#D94881" mask="url(#path-3-inside-1_66_410)"></path></g><rect id="Rectangle 4" x="31.3379" y="25.0361" width="3.18469" height="11.1464" transform="rotate(25.8444 31.3379 25.0361)" fill="#F9F2EC"></rect><path id="Ellipse 1" d="M55.1965 25.0918C52.5849 30.4835 44.7301 32.4073 37.4397 28.876C30.1494 25.3448 26.7895 17.9888 29.4011 12.5971C32.0126 7.20546 39.8675 5.28165 47.1578 8.8129C54.4481 12.3442 57.8081 19.7001 55.1965 25.0918Z" fill="#F9F2EC" stroke="#D94881" stroke-width="1.59234"></path><ellipse id="Ellipse 2" cx="37.9766" cy="14.9818" rx="6.36938" ry="5.57321" transform="rotate(25.8444 37.9766 14.9818)" fill="#F9F2EC"></ellipse><rect id="Rectangle 5" x="23.8369" y="51.481" width="3.18469" height="20.7005" transform="rotate(25.8444 23.8369 51.481)" fill="#F9F2EC"></rect></g></svg>