<svg xmlns="http://www.w3.org/2000/svg" width="64" height="80" viewBox="0 0 64 80" fill="none"><g id="Blue Pin"><path id="Ellipse 4" d="M46.822 48.9653C45.4338 51.8312 42.4718 53.6923 38.6605 54.2946C34.8528 54.8963 30.2749 54.2201 25.852 52.0778C21.4291 49.9354 18.0605 46.7626 16.1721 43.4018C14.282 40.0379 13.9061 36.5599 15.2942 33.694C16.6824 30.8282 19.6444 28.967 23.4556 28.3647C27.2634 27.763 31.8413 28.4392 36.2642 30.5816C40.6871 32.7239 44.0557 35.8967 45.9441 39.2576C47.8342 42.6214 48.2101 46.0995 46.822 48.9653Z" fill="#D94881" stroke="#F9F2EC" stroke-width="1.59234"></path><ellipse id="Ellipse 3" cx="26.0425" cy="38.9004" rx="11.1464" ry="9.55407" transform="rotate(25.8444 26.0425 38.9004)" fill="#D94881"></ellipse><g id="Union"><mask id="path-3-inside-1_66_303" fill="white"><path fill-rule="evenodd" clip-rule="evenodd" d="M45.8811 30.8168L30.1172 23.1812L23.027 37.819L23.1069 37.8578C22.5601 40.3795 25.0046 43.7057 28.9754 45.629C32.9461 47.5523 37.0715 47.4085 38.7111 45.4161L38.7908 45.4547L39.1002 44.816C39.1046 44.8071 39.109 44.7982 39.1133 44.7893C39.1176 44.7804 39.1219 44.7715 39.1261 44.7625L45.8811 30.8168Z"></path></mask><path fill-rule="evenodd" clip-rule="evenodd" d="M45.8811 30.8168L30.1172 23.1812L23.027 37.819L23.1069 37.8578C22.5601 40.3795 25.0046 43.7057 28.9754 45.629C32.9461 47.5523 37.0715 47.4085 38.7111 45.4161L38.7908 45.4547L39.1002 44.816C39.1046 44.8071 39.109 44.7982 39.1133 44.7893C39.1176 44.7804 39.1219 44.7715 39.1261 44.7625L45.8811 30.8168Z" fill="#D94881"></path><path d="M30.1172 23.1812L30.8113 21.7481L29.3783 21.0539L28.6841 22.487L30.1172 23.1812ZM45.8811 30.8168L47.3142 31.5109L48.0083 30.0779L46.5752 29.3837L45.8811 30.8168ZM23.027 37.819L21.5939 37.1249L20.8997 38.558L22.3328 39.2521L23.027 37.819ZM23.1069 37.8578L24.6631 38.1952L24.9286 36.9708L23.8011 36.4247L23.1069 37.8578ZM38.7111 45.4161L39.4053 43.983L38.2777 43.4368L37.4816 44.4042L38.7111 45.4161ZM38.7908 45.4547L38.0967 46.8878L39.5298 47.5819L40.2239 46.1488L38.7908 45.4547ZM39.1002 44.816L37.6738 44.1083L37.6704 44.1151L37.6671 44.1218L39.1002 44.816ZM39.1261 44.7625L37.693 44.0684L37.6897 44.0752L37.6865 44.082L39.1261 44.7625ZM29.423 24.6142L45.1869 32.2499L46.5752 29.3837L30.8113 21.7481L29.423 24.6142ZM24.46 38.5132L31.5503 23.8753L28.6841 22.487L21.5939 37.1249L24.46 38.5132ZM23.8011 36.4247L23.7211 36.386L22.3328 39.2521L22.4128 39.2909L23.8011 36.4247ZM29.6695 44.1959C27.8807 43.3295 26.488 42.1699 25.6215 41.0131C24.7312 39.8247 24.5251 38.8315 24.6631 38.1952L21.5507 37.5203C21.1419 39.4058 21.8846 41.3366 23.0726 42.9225C24.2844 44.5401 26.0993 46.0052 28.2812 47.0621L29.6695 44.1959ZM37.4816 44.4042C37.0679 44.9069 36.1608 45.3609 34.6764 45.3991C33.2316 45.4363 31.4584 45.0624 29.6695 44.1959L28.2812 47.0621C30.4631 48.119 32.7379 48.6348 34.7584 48.5828C36.7392 48.5318 38.7147 47.9176 39.9407 46.4279L37.4816 44.4042ZM39.485 44.0216L39.4053 43.983L38.017 46.8491L38.0967 46.8878L39.485 44.0216ZM37.6671 44.1218L37.3578 44.7605L40.2239 46.1488L40.5333 45.5101L37.6671 44.1218ZM37.6802 44.0952C37.6781 44.0995 37.676 44.1039 37.6738 44.1083L40.5267 45.5236C40.5332 45.5104 40.5398 45.497 40.5464 45.4835L37.6802 44.0952ZM37.6865 44.082C37.6844 44.0865 37.6823 44.0909 37.6802 44.0952L40.5464 45.4835C40.5529 45.47 40.5593 45.4565 40.5657 45.4431L37.6865 44.082ZM44.448 30.1226L37.693 44.0684L40.5592 45.4567L47.3142 31.5109L44.448 30.1226Z" fill="#F9F2EC" mask="url(#path-3-inside-1_66_303)"></path></g><rect id="Rectangle 4" x="30.8564" y="25.3086" width="3.18469" height="11.1464" transform="rotate(25.8444 30.8564 25.3086)" fill="#D94881"></rect><path id="Ellipse 1" d="M54.7151 25.3643C52.1035 30.7559 44.2486 32.6797 36.9583 29.1485C29.668 25.6172 26.308 18.2613 28.9196 12.8696C31.5312 7.47792 39.386 5.55411 46.6764 9.08536C53.9667 12.6166 57.3266 19.9726 54.7151 25.3643Z" fill="#D94881" stroke="#F9F2EC" stroke-width="1.59234"></path><ellipse id="Ellipse 2" cx="37.4952" cy="15.2543" rx="6.36938" ry="5.57321" transform="rotate(25.8444 37.4952 15.2543)" fill="#D94881"></ellipse><rect id="Rectangle 5" x="23.3555" y="51.7534" width="3.18469" height="20.7005" transform="rotate(25.8444 23.3555 51.7534)" fill="#D94881"></rect></g></svg>