<svg xmlns="http://www.w3.org/2000/svg" width="64" height="80" viewBox="0 0 64 80" fill="none"><g id="Blue Pin"><path id="Ellipse 4" d="M16.6819 48.9653C18.0701 51.8312 21.0321 53.6923 24.8434 54.2946C28.6512 54.8963 33.229 54.2201 37.6519 52.0778C42.0748 49.9354 45.4434 46.7626 47.3318 43.4018C49.2219 40.0379 49.5978 36.5599 48.2097 33.694C46.8215 30.8282 43.8595 28.967 40.0483 28.3647C36.2405 27.763 31.6626 28.4392 27.2397 30.5816C22.8168 32.7239 19.4482 35.8967 17.5598 39.2576C15.6697 42.6214 15.2938 46.0995 16.6819 48.9653Z" fill="#D94881" stroke="#F9F2EC" stroke-width="1.59234"></path><ellipse id="Ellipse 3" cx="11.1464" cy="9.55407" rx="11.1464" ry="9.55407" transform="matrix(-0.899981 0.435928 0.435928 0.899981 43.3281 25.4429)" fill="#D94881"></ellipse><g id="Union"><mask id="path-3-inside-1_66_313" fill="white"><path fill-rule="evenodd" clip-rule="evenodd" d="M17.6228 30.8168L33.3867 23.1812L40.4769 37.819L40.397 37.8578C40.9438 40.3795 38.4993 43.7057 34.5285 45.629C30.5578 47.5523 26.4324 47.4085 24.7928 45.4161L24.7131 45.4547L24.4037 44.816C24.3993 44.8071 24.3949 44.7982 24.3906 44.7893C24.3863 44.7804 24.382 44.7715 24.3778 44.7625L17.6228 30.8168Z"></path></mask><path fill-rule="evenodd" clip-rule="evenodd" d="M17.6228 30.8168L33.3867 23.1812L40.4769 37.819L40.397 37.8578C40.9438 40.3795 38.4993 43.7057 34.5285 45.629C30.5578 47.5523 26.4324 47.4085 24.7928 45.4161L24.7131 45.4547L24.4037 44.816C24.3993 44.8071 24.3949 44.7982 24.3906 44.7893C24.3863 44.7804 24.382 44.7715 24.3778 44.7625L17.6228 30.8168Z" fill="#D94881"></path><path d="M33.3867 23.1812L32.6926 21.7481L34.1257 21.0539L34.8198 22.487L33.3867 23.1812ZM17.6228 30.8168L16.1898 31.5109L15.4956 30.0779L16.9287 29.3837L17.6228 30.8168ZM40.4769 37.819L41.91 37.1249L42.6042 38.558L41.1711 39.2521L40.4769 37.819ZM40.397 37.8578L38.8408 38.1952L38.5753 36.9708L39.7028 36.4247L40.397 37.8578ZM24.7928 45.4161L24.0986 43.983L25.2262 43.4368L26.0223 44.4042L24.7928 45.4161ZM24.7131 45.4547L25.4072 46.8878L23.9741 47.5819L23.28 46.1488L24.7131 45.4547ZM24.4037 44.816L25.8302 44.1083L25.8335 44.1151L25.8368 44.1218L24.4037 44.816ZM24.3778 44.7625L25.8109 44.0684L25.8142 44.0752L25.8174 44.082L24.3778 44.7625ZM34.0809 24.6142L18.317 32.2499L16.9287 29.3837L32.6926 21.7481L34.0809 24.6142ZM39.0439 38.5132L31.9536 23.8753L34.8198 22.487L41.91 37.1249L39.0439 38.5132ZM39.7028 36.4247L39.7828 36.386L41.1711 39.2521L41.0911 39.2909L39.7028 36.4247ZM33.8344 44.1959C35.6232 43.3295 37.0159 42.1699 37.8824 41.0131C38.7727 39.8247 38.9788 38.8315 38.8408 38.1952L41.9532 37.5203C42.362 39.4058 41.6193 41.3366 40.4313 42.9225C39.2196 44.5401 37.4046 46.0052 35.2227 47.0621L33.8344 44.1959ZM26.0223 44.4042C26.436 44.9069 27.3431 45.3609 28.8275 45.3991C30.2723 45.4363 32.0456 45.0624 33.8344 44.1959L35.2227 47.0621C33.0408 48.119 30.766 48.6348 28.7455 48.5828C26.7647 48.5318 24.7892 47.9176 23.5633 46.4279L26.0223 44.4042ZM24.0189 44.0216L24.0986 43.983L25.4869 46.8491L25.4072 46.8878L24.0189 44.0216ZM25.8368 44.1218L26.1461 44.7605L23.28 46.1488L22.9706 45.5101L25.8368 44.1218ZM25.8237 44.0952C25.8258 44.0995 25.8279 44.1039 25.8302 44.1083L22.9772 45.5236C22.9707 45.5104 22.9641 45.497 22.9575 45.4835L25.8237 44.0952ZM25.8174 44.082C25.8195 44.0865 25.8216 44.0909 25.8237 44.0952L22.9575 45.4835C22.951 45.47 22.9446 45.4565 22.9382 45.4431L25.8174 44.082ZM19.0559 30.1226L25.8109 44.0684L22.9447 45.4567L16.1898 31.5109L19.0559 30.1226Z" fill="#F9F2EC" mask="url(#path-3-inside-1_66_313)"></path></g><rect id="Rectangle 4" width="3.18469" height="11.1464" transform="matrix(-0.899981 0.435928 0.435928 0.899981 32.6475 25.3086)" fill="#D94881"></rect><path id="Ellipse 1" d="M8.78885 25.3643C11.4004 30.7559 19.2553 32.6797 26.5456 29.1485C33.8359 25.6172 37.1959 18.2613 34.5843 12.8696C31.9727 7.47792 24.1179 5.55411 16.8275 9.08536C9.5372 12.6166 6.17727 19.9726 8.78885 25.3643Z" fill="#D94881" stroke="#F9F2EC" stroke-width="1.59234"></path><ellipse id="Ellipse 2" cx="6.36938" cy="5.57321" rx="6.36938" ry="5.57321" transform="matrix(-0.899981 0.435928 0.435928 0.899981 29.3115 7.46191)" fill="#D94881"></ellipse><rect id="Rectangle 5" width="3.18469" height="20.7005" transform="matrix(-0.899981 0.435928 0.435928 0.899981 40.1484 51.7534)" fill="#D94881"></rect></g></svg>