<svg xmlns="http://www.w3.org/2000/svg" width="80" height="80" viewBox="0 0 80 80" fill="none"><g id="Intellectual--Streamline-Plump"><g id="intellectual--disability-intellectual"><path id="Subtract" fill-rule="evenodd" clip-rule="evenodd" d="M4.16699 33.8887C4.16699 16.5448 18.3748 2.5 35.8825 2.5C53.1715 2.5 67.2425 16.1961 67.5913 33.2405L74.0585 42.2568C75.2137 43.8673 75.0917 46.224 73.2165 47.3708C71.7955 48.2397 69.7195 49.2505 66.9315 49.9875L65.9728 61.3708C65.695 64.6702 62.73 67.077 59.444 66.6705L55.2452 66.1512V71.0137C55.2452 73.5247 53.6082 75.7952 51.0462 76.272C47.9597 76.8465 42.9048 77.4998 35.8825 77.4998C28.8602 77.4998 23.8055 76.8465 20.7188 76.272C18.1568 75.7952 16.5199 73.5247 16.5199 71.0137V58.7507C9.00964 53.0133 4.16699 44.0118 4.16699 33.8887ZM16.0679 39.443C13.5806 30.716 17.2195 21.0897 25.4352 16.3463C33.651 11.6029 43.807 13.2647 50.1212 19.7823C52.0427 21.7657 51.1853 24.8848 48.794 26.2655L22.3462 41.5352C19.9547 42.9158 16.8248 42.0987 16.0679 39.443Z" fill="#D94881"></path></g></g></svg>