<svg xmlns="http://www.w3.org/2000/svg" width="702" height="3575" viewBox="0 0 702 3575" fill="none"><g opacity="0.62"><mask id="path-1-outside-1_66_421" maskUnits="userSpaceOnUse" x="-306.597" y="-0.182661" width="1009" height="3575" fill="black"><rect fill="white" x="-306.597" y="-0.182661" width="1009" height="3575"></rect><path d="M-55.0021 151.167L-32.2751 151.167L-23.6171 194.457C-17.1237 224.759 0.553029 239.911 29.4128 239.911L324.865 239.911C375.37 239.911 425.874 239.911 476.379 239.911C526.884 239.911 577.388 239.55 627.893 238.829L627.893 153.331C627.893 130.244 621.76 113.288 609.495 102.466C597.23 91.6435 579.914 80.8211 557.547 69.9987L477.461 32.1202L477.461 1.81737L660.36 7.22859L660.36 628.436L477.461 633.847L477.461 603.544L557.547 565.666C579.914 554.843 597.229 544.021 609.495 533.199C621.76 522.376 627.893 505.421 627.893 482.333L627.893 395.754L29.4128 395.754C-0.168474 395.754 -17.8452 410.905 -23.6171 441.208L-32.2751 485.58L-55.0021 485.58L-55.0021 151.167ZM480.708 867.426C480.708 912.88 471.329 951.841 452.57 984.308C433.811 1016.78 407.837 1041.67 374.648 1058.98C342.181 1077.02 304.663 1086.04 262.095 1086.04C252.715 1086.04 243.697 1085.68 235.039 1084.96C227.102 1084.23 219.527 1082.79 212.312 1080.63L212.312 754.872C137.998 755.594 84.6072 769.302 52.1399 795.998C19.6726 823.414 3.43893 863.097 3.43892 915.044C3.43892 951.119 9.21089 980.34 20.7548 1002.71C33.0203 1025.07 49.9754 1045.63 71.6203 1064.39L55.3866 1081.71C15.7044 1060.06 -15.3199 1030.48 -37.6863 992.966C-59.3311 956.169 -70.1535 912.158 -70.1535 860.932C-70.1535 809.706 -59.3311 764.612 -37.6862 725.652C-16.0414 686.691 14.9829 656.027 55.3866 633.661C96.5118 612.016 145.574 601.194 202.572 601.194C261.734 601.194 311.878 613.82 353.003 639.072C394.129 665.046 425.514 698.235 447.158 738.639C469.525 779.764 480.708 822.693 480.708 867.426ZM449.323 862.014C449.323 841.091 443.19 822.693 430.925 806.82C419.381 791.669 398.458 779.403 368.155 770.024C338.573 761.366 296.727 756.315 242.615 754.872L242.615 948.594C315.486 956.53 368.155 953.644 400.622 939.936C433.089 926.227 449.323 900.254 449.323 862.014ZM-55.0021 1141.16L-34.4396 1141.16L-29.0283 1157.39C-25.4208 1171.82 -19.2882 1181.56 -10.6302 1186.61C-1.97234 1192.38 9.5716 1195.27 24.0015 1195.27L341.099 1195.27C356.972 1194.55 368.876 1191.66 376.813 1186.61C385.471 1181.56 391.243 1171.82 394.129 1157.39L398.458 1141.16L417.938 1141.16L480.708 1317.56L468.803 1330.55L373.566 1340.29L365.99 1340.29C386.192 1351.11 404.951 1364.82 422.267 1381.41C439.583 1398.01 453.652 1416.05 464.474 1435.53C475.297 1455.01 480.708 1474.49 480.708 1493.97C480.708 1521.38 473.493 1541.95 459.063 1555.66C444.633 1569.36 426.235 1576.22 403.869 1576.22C379.338 1576.22 360.579 1569.36 347.592 1555.66C335.327 1541.95 329.194 1525.35 329.194 1505.87C329.194 1477.01 342.181 1452.12 368.155 1431.2L370.319 1429.03C378.977 1421.82 383.667 1413.52 384.388 1404.14C385.831 1395.48 381.502 1386.83 371.401 1378.17C364.187 1370.95 355.529 1364.1 345.428 1357.61C336.048 1351.83 324.865 1346.42 311.878 1341.37L28.3305 1341.37C14.6221 1341.37 3.07813 1344.26 -6.30127 1350.03C-14.9592 1355.8 -21.0919 1365.54 -24.6993 1379.25L-34.4396 1411.72L-55.0021 1411.72L-55.0021 1141.16ZM-70.1536 1747.25C-70.1536 1706.13 -58.6097 1671.14 -35.5219 1642.28C-11.7125 1614.14 22.1978 1600.07 66.209 1600.07C100.841 1600.07 132.587 1616.66 161.446 1649.85C191.028 1683.76 212.673 1736.79 226.381 1808.94C229.267 1821.21 231.792 1835.28 233.957 1851.15C236.843 1867.74 239.729 1883.98 242.615 1899.85L319.454 1899.85C368.515 1899.85 402.426 1893.72 421.185 1881.45C439.943 1869.19 449.323 1849.71 449.323 1823.01L449.323 1819.77C449.323 1803.17 443.912 1789.82 433.089 1779.72C422.988 1770.34 406.033 1764.21 382.224 1761.32L368.155 1758.08C339.295 1755.91 318.011 1748.34 304.302 1735.35C291.315 1722.36 284.822 1706.13 284.822 1686.65C284.822 1668.61 290.233 1653.46 301.056 1641.2C312.6 1629.65 327.39 1623.88 345.428 1623.88C375.009 1623.88 399.901 1633.98 420.102 1654.18C440.304 1674.38 455.456 1701.08 465.557 1734.27C475.658 1768.18 480.708 1804.61 480.708 1843.57C480.708 1907.79 465.196 1956.85 434.172 1990.76C403.147 2024.67 352.643 2041.63 282.658 2041.63L41.3174 2041.63C10.2931 2041.63 -5.21908 2056.42 -5.21909 2086L-5.21909 2110.89L-17.1237 2121.71C-33.7181 2108.72 -46.3442 2094.29 -55.0022 2078.42C-64.3816 2062.55 -69.0713 2040.9 -69.0713 2013.49C-69.0713 1982.46 -61.8564 1957.57 -47.4265 1938.81C-32.2751 1920.77 -12.434 1908.87 12.0968 1903.1C-12.434 1880.01 -32.2751 1857.28 -47.4265 1834.92C-62.5779 1812.55 -70.1536 1783.33 -70.1536 1747.25ZM-0.890094 1810.02C-0.890094 1824.45 2.35667 1838.16 8.85014 1851.15C15.3435 1864.14 26.166 1880.37 41.3174 1899.85L214.476 1899.85C211.59 1881.09 207.983 1861.97 203.654 1842.49C196.439 1811.47 183.091 1786.22 163.611 1766.74C144.13 1747.98 117.796 1738.6 84.6071 1738.6C55.7473 1738.6 34.1025 1745.09 19.6725 1758.08C5.96416 1771.79 -0.890093 1789.1 -0.890094 1810.02ZM-305 2125.11L-284.438 2125.11L-280.109 2139.18C-276.501 2153.61 -270.369 2163.71 -261.711 2169.48C-253.774 2175.25 -242.23 2178.14 -227.079 2178.14C-197.497 2178.14 -169.359 2178.14 -142.664 2178.14C-116.69 2178.86 -91.4377 2179.22 -66.9069 2179.22L230.71 2179.22C253.076 2179.22 272.196 2179.22 288.069 2179.22C304.663 2179.22 323.061 2178.86 343.263 2178.14C358.415 2178.14 369.958 2175.61 377.895 2170.56C386.553 2165.51 392.325 2155.77 395.211 2141.34L398.458 2125.11L417.938 2125.11L480.708 2299.35L469.886 2312.34L429.843 2322.08C463.753 2371.86 480.708 2428.14 480.708 2490.91C480.708 2552.24 457.62 2601.3 411.444 2638.09C365.269 2675.61 297.087 2694.37 206.9 2694.37C119.6 2694.37 51.4183 2673.81 2.3567 2632.68C-45.9835 2592.28 -70.1536 2537.08 -70.1536 2467.1C-70.1536 2438.96 -67.6284 2412.27 -62.5779 2387.01C-57.5275 2362.48 -49.9518 2340.48 -39.8508 2321L-72.3182 2321C-93.963 2321 -117.412 2321 -142.664 2321C-167.916 2321.72 -195.333 2322.08 -224.914 2322.08C-253.774 2322.08 -271.812 2334.7 -279.027 2359.96L-284.438 2380.52L-305 2380.52L-305 2125.11ZM-26.8639 2416.23C-26.8639 2454.47 -9.9088 2484.41 24.0015 2506.06C58.6333 2528.43 118.157 2539.61 202.572 2539.61C286.265 2539.61 344.706 2529.15 377.895 2508.22C411.805 2487.3 428.76 2457.72 428.76 2419.48C428.76 2405.77 426.596 2390.98 422.267 2375.11C417.938 2359.24 410.723 2342.28 400.622 2324.24L-8.4658 2324.24C-20.7312 2353.1 -26.8639 2383.77 -26.8639 2416.23ZM540.231 2869.98C540.231 2846.17 547.807 2825.97 562.958 2809.37C578.11 2792.78 597.229 2784.48 620.317 2784.48C644.127 2784.48 663.246 2792.78 677.676 2809.37C692.828 2825.97 700.403 2846.17 700.403 2869.98C700.403 2893.79 692.828 2913.99 677.676 2930.59C663.246 2947.18 644.127 2955.48 620.317 2955.48C597.229 2955.48 578.11 2947.18 562.958 2930.59C547.807 2913.99 540.231 2893.79 540.231 2869.98ZM-55.0022 2745.52L-34.4396 2745.52L-30.1107 2761.76C-25.7817 2776.19 -19.2883 2785.93 -10.6303 2790.98C-1.97241 2796.03 9.57153 2798.91 24.0015 2799.63L223.134 2799.63C245.501 2799.63 266.063 2799.63 284.822 2799.63C304.302 2799.63 324.143 2799.27 344.345 2798.55C358.775 2798.55 369.958 2795.67 377.895 2789.89C386.553 2784.84 392.325 2775.1 395.211 2760.67L398.457 2745.52L417.938 2745.52L480.708 2934.92L468.803 2947.9L315.125 2944.66L22.9192 2944.65C8.48931 2944.65 -3.05457 2947.18 -11.7125 2952.23C-20.3705 2958 -26.864 2967.74 -31.1929 2981.45L-34.4396 2993.36L-55.0022 2993.36L-55.0022 2745.52ZM-70.1536 3198.35C-70.1536 3157.22 -58.6098 3122.23 -35.5219 3093.37C-11.7125 3065.23 22.1977 3051.16 66.2089 3051.16C100.841 3051.16 132.586 3067.76 161.446 3100.95C191.028 3134.86 212.672 3187.89 226.381 3260.04C229.267 3272.3 231.792 3286.37 233.957 3302.24C236.843 3318.84 239.729 3335.07 242.614 3350.94L319.454 3350.94C368.515 3350.94 402.426 3344.81 421.185 3332.55C439.943 3320.28 449.323 3300.8 449.323 3274.11L449.323 3270.86C449.323 3254.26 443.912 3240.92 433.089 3230.82C422.988 3221.44 406.033 3215.3 382.224 3212.42L368.155 3209.17C339.295 3207.01 318.011 3199.43 304.302 3186.44C291.315 3173.46 284.822 3157.22 284.822 3137.74C284.822 3119.7 290.233 3104.55 301.056 3092.29C312.6 3080.74 327.39 3074.97 345.428 3074.97C375.009 3074.97 399.9 3085.07 420.102 3105.28C440.304 3125.48 455.456 3152.17 465.557 3185.36C475.657 3219.27 480.708 3255.71 480.708 3294.67C480.708 3358.88 465.196 3407.94 434.171 3441.85C403.147 3475.76 352.643 3492.72 282.657 3492.72L41.3173 3492.72C10.293 3492.72 -5.21915 3507.51 -5.21915 3537.09L-5.21915 3561.98L-17.1238 3572.8C-33.7182 3559.82 -46.3443 3545.39 -55.0022 3529.51C-64.3817 3513.64 -69.0714 3492 -69.0714 3464.58C-69.0714 3433.56 -61.8565 3408.66 -47.4265 3389.9C-32.2752 3371.87 -12.434 3359.96 12.0968 3354.19C-12.434 3331.1 -32.2752 3308.38 -47.4265 3286.01C-62.578 3263.64 -70.1536 3234.42 -70.1536 3198.35ZM-0.890157 3261.12C-0.890158 3275.55 2.35661 3289.26 8.85008 3302.24C15.3435 3315.23 26.1659 3331.46 41.3173 3350.94L214.476 3350.94C211.59 3332.19 207.983 3313.07 203.654 3293.59C196.439 3262.56 183.091 3237.31 163.611 3217.83C144.13 3199.07 117.796 3189.69 84.607 3189.69C55.7472 3189.69 34.1024 3196.18 19.6725 3209.17C5.96409 3222.88 -0.890156 3240.19 -0.890157 3261.12Z"></path></mask><path d="M-55.0021 151.167L-32.2751 151.167L-23.6171 194.457C-17.1237 224.759 0.553029 239.911 29.4128 239.911L324.865 239.911C375.37 239.911 425.874 239.911 476.379 239.911C526.884 239.911 577.388 239.55 627.893 238.829L627.893 153.331C627.893 130.244 621.76 113.288 609.495 102.466C597.23 91.6435 579.914 80.8211 557.547 69.9987L477.461 32.1202L477.461 1.81737L660.36 7.22859L660.36 628.436L477.461 633.847L477.461 603.544L557.547 565.666C579.914 554.843 597.229 544.021 609.495 533.199C621.76 522.376 627.893 505.421 627.893 482.333L627.893 395.754L29.4128 395.754C-0.168474 395.754 -17.8452 410.905 -23.6171 441.208L-32.2751 485.58L-55.0021 485.58L-55.0021 151.167ZM480.708 867.426C480.708 912.88 471.329 951.841 452.57 984.308C433.811 1016.78 407.837 1041.67 374.648 1058.98C342.181 1077.02 304.663 1086.04 262.095 1086.04C252.715 1086.04 243.697 1085.68 235.039 1084.96C227.102 1084.23 219.527 1082.79 212.312 1080.63L212.312 754.872C137.998 755.594 84.6072 769.302 52.1399 795.998C19.6726 823.414 3.43893 863.097 3.43892 915.044C3.43892 951.119 9.21089 980.34 20.7548 1002.71C33.0203 1025.07 49.9754 1045.63 71.6203 1064.39L55.3866 1081.71C15.7044 1060.06 -15.3199 1030.48 -37.6863 992.966C-59.3311 956.169 -70.1535 912.158 -70.1535 860.932C-70.1535 809.706 -59.3311 764.612 -37.6862 725.652C-16.0414 686.691 14.9829 656.027 55.3866 633.661C96.5118 612.016 145.574 601.194 202.572 601.194C261.734 601.194 311.878 613.82 353.003 639.072C394.129 665.046 425.514 698.235 447.158 738.639C469.525 779.764 480.708 822.693 480.708 867.426ZM449.323 862.014C449.323 841.091 443.19 822.693 430.925 806.82C419.381 791.669 398.458 779.403 368.155 770.024C338.573 761.366 296.727 756.315 242.615 754.872L242.615 948.594C315.486 956.53 368.155 953.644 400.622 939.936C433.089 926.227 449.323 900.254 449.323 862.014ZM-55.0021 1141.16L-34.4396 1141.16L-29.0283 1157.39C-25.4208 1171.82 -19.2882 1181.56 -10.6302 1186.61C-1.97234 1192.38 9.5716 1195.27 24.0015 1195.27L341.099 1195.27C356.972 1194.55 368.876 1191.66 376.813 1186.61C385.471 1181.56 391.243 1171.82 394.129 1157.39L398.458 1141.16L417.938 1141.16L480.708 1317.56L468.803 1330.55L373.566 1340.29L365.99 1340.29C386.192 1351.11 404.951 1364.82 422.267 1381.41C439.583 1398.01 453.652 1416.05 464.474 1435.53C475.297 1455.01 480.708 1474.49 480.708 1493.97C480.708 1521.38 473.493 1541.95 459.063 1555.66C444.633 1569.36 426.235 1576.22 403.869 1576.22C379.338 1576.22 360.579 1569.36 347.592 1555.66C335.327 1541.95 329.194 1525.35 329.194 1505.87C329.194 1477.01 342.181 1452.12 368.155 1431.2L370.319 1429.03C378.977 1421.82 383.667 1413.52 384.388 1404.14C385.831 1395.48 381.502 1386.83 371.401 1378.17C364.187 1370.95 355.529 1364.1 345.428 1357.61C336.048 1351.83 324.865 1346.42 311.878 1341.37L28.3305 1341.37C14.6221 1341.37 3.07813 1344.26 -6.30127 1350.03C-14.9592 1355.8 -21.0919 1365.54 -24.6993 1379.25L-34.4396 1411.72L-55.0021 1411.72L-55.0021 1141.16ZM-70.1536 1747.25C-70.1536 1706.13 -58.6097 1671.14 -35.5219 1642.28C-11.7125 1614.14 22.1978 1600.07 66.209 1600.07C100.841 1600.07 132.587 1616.66 161.446 1649.85C191.028 1683.76 212.673 1736.79 226.381 1808.94C229.267 1821.21 231.792 1835.28 233.957 1851.15C236.843 1867.74 239.729 1883.98 242.615 1899.85L319.454 1899.85C368.515 1899.85 402.426 1893.72 421.185 1881.45C439.943 1869.19 449.323 1849.71 449.323 1823.01L449.323 1819.77C449.323 1803.17 443.912 1789.82 433.089 1779.72C422.988 1770.34 406.033 1764.21 382.224 1761.32L368.155 1758.08C339.295 1755.91 318.011 1748.34 304.302 1735.35C291.315 1722.36 284.822 1706.13 284.822 1686.65C284.822 1668.61 290.233 1653.46 301.056 1641.2C312.6 1629.65 327.39 1623.88 345.428 1623.88C375.009 1623.88 399.901 1633.98 420.102 1654.18C440.304 1674.38 455.456 1701.08 465.557 1734.27C475.658 1768.18 480.708 1804.61 480.708 1843.57C480.708 1907.79 465.196 1956.85 434.172 1990.76C403.147 2024.67 352.643 2041.63 282.658 2041.63L41.3174 2041.63C10.2931 2041.63 -5.21908 2056.42 -5.21909 2086L-5.21909 2110.89L-17.1237 2121.71C-33.7181 2108.72 -46.3442 2094.29 -55.0022 2078.42C-64.3816 2062.55 -69.0713 2040.9 -69.0713 2013.49C-69.0713 1982.46 -61.8564 1957.57 -47.4265 1938.81C-32.2751 1920.77 -12.434 1908.87 12.0968 1903.1C-12.434 1880.01 -32.2751 1857.28 -47.4265 1834.92C-62.5779 1812.55 -70.1536 1783.33 -70.1536 1747.25ZM-0.890094 1810.02C-0.890094 1824.45 2.35667 1838.16 8.85014 1851.15C15.3435 1864.14 26.166 1880.37 41.3174 1899.85L214.476 1899.85C211.59 1881.09 207.983 1861.97 203.654 1842.49C196.439 1811.47 183.091 1786.22 163.611 1766.74C144.13 1747.98 117.796 1738.6 84.6071 1738.6C55.7473 1738.6 34.1025 1745.09 19.6725 1758.08C5.96416 1771.79 -0.890093 1789.1 -0.890094 1810.02ZM-305 2125.11L-284.438 2125.11L-280.109 2139.18C-276.501 2153.61 -270.369 2163.71 -261.711 2169.48C-253.774 2175.25 -242.23 2178.14 -227.079 2178.14C-197.497 2178.14 -169.359 2178.14 -142.664 2178.14C-116.69 2178.86 -91.4377 2179.22 -66.9069 2179.22L230.71 2179.22C253.076 2179.22 272.196 2179.22 288.069 2179.22C304.663 2179.22 323.061 2178.86 343.263 2178.14C358.415 2178.14 369.958 2175.61 377.895 2170.56C386.553 2165.51 392.325 2155.77 395.211 2141.34L398.458 2125.11L417.938 2125.11L480.708 2299.35L469.886 2312.34L429.843 2322.08C463.753 2371.86 480.708 2428.14 480.708 2490.91C480.708 2552.24 457.62 2601.3 411.444 2638.09C365.269 2675.61 297.087 2694.37 206.9 2694.37C119.6 2694.37 51.4183 2673.81 2.3567 2632.68C-45.9835 2592.28 -70.1536 2537.08 -70.1536 2467.1C-70.1536 2438.96 -67.6284 2412.27 -62.5779 2387.01C-57.5275 2362.48 -49.9518 2340.48 -39.8508 2321L-72.3182 2321C-93.963 2321 -117.412 2321 -142.664 2321C-167.916 2321.72 -195.333 2322.08 -224.914 2322.08C-253.774 2322.08 -271.812 2334.7 -279.027 2359.96L-284.438 2380.52L-305 2380.52L-305 2125.11ZM-26.8639 2416.23C-26.8639 2454.47 -9.9088 2484.41 24.0015 2506.06C58.6333 2528.43 118.157 2539.61 202.572 2539.61C286.265 2539.61 344.706 2529.15 377.895 2508.22C411.805 2487.3 428.76 2457.72 428.76 2419.48C428.76 2405.77 426.596 2390.98 422.267 2375.11C417.938 2359.24 410.723 2342.28 400.622 2324.24L-8.4658 2324.24C-20.7312 2353.1 -26.8639 2383.77 -26.8639 2416.23ZM540.231 2869.98C540.231 2846.17 547.807 2825.97 562.958 2809.37C578.11 2792.78 597.229 2784.48 620.317 2784.48C644.127 2784.48 663.246 2792.78 677.676 2809.37C692.828 2825.97 700.403 2846.17 700.403 2869.98C700.403 2893.79 692.828 2913.99 677.676 2930.59C663.246 2947.18 644.127 2955.48 620.317 2955.48C597.229 2955.48 578.11 2947.18 562.958 2930.59C547.807 2913.99 540.231 2893.79 540.231 2869.98ZM-55.0022 2745.52L-34.4396 2745.52L-30.1107 2761.76C-25.7817 2776.19 -19.2883 2785.93 -10.6303 2790.98C-1.97241 2796.03 9.57153 2798.91 24.0015 2799.63L223.134 2799.63C245.501 2799.63 266.063 2799.63 284.822 2799.63C304.302 2799.63 324.143 2799.27 344.345 2798.55C358.775 2798.55 369.958 2795.67 377.895 2789.89C386.553 2784.84 392.325 2775.1 395.211 2760.67L398.457 2745.52L417.938 2745.52L480.708 2934.92L468.803 2947.9L315.125 2944.66L22.9192 2944.65C8.48931 2944.65 -3.05457 2947.18 -11.7125 2952.23C-20.3705 2958 -26.864 2967.74 -31.1929 2981.45L-34.4396 2993.36L-55.0022 2993.36L-55.0022 2745.52ZM-70.1536 3198.35C-70.1536 3157.22 -58.6098 3122.23 -35.5219 3093.37C-11.7125 3065.23 22.1977 3051.16 66.2089 3051.16C100.841 3051.16 132.586 3067.76 161.446 3100.95C191.028 3134.86 212.672 3187.89 226.381 3260.04C229.267 3272.3 231.792 3286.37 233.957 3302.24C236.843 3318.84 239.729 3335.07 242.614 3350.94L319.454 3350.94C368.515 3350.94 402.426 3344.81 421.185 3332.55C439.943 3320.28 449.323 3300.8 449.323 3274.11L449.323 3270.86C449.323 3254.26 443.912 3240.92 433.089 3230.82C422.988 3221.44 406.033 3215.3 382.224 3212.42L368.155 3209.17C339.295 3207.01 318.011 3199.43 304.302 3186.44C291.315 3173.46 284.822 3157.22 284.822 3137.74C284.822 3119.7 290.233 3104.55 301.056 3092.29C312.6 3080.74 327.39 3074.97 345.428 3074.97C375.009 3074.97 399.9 3085.07 420.102 3105.28C440.304 3125.48 455.456 3152.17 465.557 3185.36C475.657 3219.27 480.708 3255.71 480.708 3294.67C480.708 3358.88 465.196 3407.94 434.171 3441.85C403.147 3475.76 352.643 3492.72 282.657 3492.72L41.3173 3492.72C10.293 3492.72 -5.21915 3507.51 -5.21915 3537.09L-5.21915 3561.98L-17.1238 3572.8C-33.7182 3559.82 -46.3443 3545.39 -55.0022 3529.51C-64.3817 3513.64 -69.0714 3492 -69.0714 3464.58C-69.0714 3433.56 -61.8565 3408.66 -47.4265 3389.9C-32.2752 3371.87 -12.434 3359.96 12.0968 3354.19C-12.434 3331.1 -32.2752 3308.38 -47.4265 3286.01C-62.578 3263.64 -70.1536 3234.42 -70.1536 3198.35ZM-0.890157 3261.12C-0.890158 3275.55 2.35661 3289.26 8.85008 3302.24C15.3435 3315.23 26.1659 3331.46 41.3173 3350.94L214.476 3350.94C211.59 3332.19 207.983 3313.07 203.654 3293.59C196.439 3262.56 183.091 3237.31 163.611 3217.83C144.13 3199.07 117.796 3189.69 84.607 3189.69C55.7472 3189.69 34.1024 3196.18 19.6725 3209.17C5.96409 3222.88 -0.890156 3240.19 -0.890157 3261.12Z" fill="#D94881" fill-opacity="0.09"></path><path d="M-55.0021 151.167L-32.2751 151.167L-23.6171 194.457C-17.1237 224.759 0.553029 239.911 29.4128 239.911L324.865 239.911C375.37 239.911 425.874 239.911 476.379 239.911C526.884 239.911 577.388 239.55 627.893 238.829L627.893 153.331C627.893 130.244 621.76 113.288 609.495 102.466C597.23 91.6435 579.914 80.8211 557.547 69.9987L477.461 32.1202L477.461 1.81737L660.36 7.22859L660.36 628.436L477.461 633.847L477.461 603.544L557.547 565.666C579.914 554.843 597.229 544.021 609.495 533.199C621.76 522.376 627.893 505.421 627.893 482.333L627.893 395.754L29.4128 395.754C-0.168474 395.754 -17.8452 410.905 -23.6171 441.208L-32.2751 485.58L-55.0021 485.58L-55.0021 151.167ZM480.708 867.426C480.708 912.88 471.329 951.841 452.57 984.308C433.811 1016.78 407.837 1041.67 374.648 1058.98C342.181 1077.02 304.663 1086.04 262.095 1086.04C252.715 1086.04 243.697 1085.68 235.039 1084.96C227.102 1084.23 219.527 1082.79 212.312 1080.63L212.312 754.872C137.998 755.594 84.6072 769.302 52.1399 795.998C19.6726 823.414 3.43893 863.097 3.43892 915.044C3.43892 951.119 9.21089 980.34 20.7548 1002.71C33.0203 1025.07 49.9754 1045.63 71.6203 1064.39L55.3866 1081.71C15.7044 1060.06 -15.3199 1030.48 -37.6863 992.966C-59.3311 956.169 -70.1535 912.158 -70.1535 860.932C-70.1535 809.706 -59.3311 764.612 -37.6862 725.652C-16.0414 686.691 14.9829 656.027 55.3866 633.661C96.5118 612.016 145.574 601.194 202.572 601.194C261.734 601.194 311.878 613.82 353.003 639.072C394.129 665.046 425.514 698.235 447.158 738.639C469.525 779.764 480.708 822.693 480.708 867.426ZM449.323 862.014C449.323 841.091 443.19 822.693 430.925 806.82C419.381 791.669 398.458 779.403 368.155 770.024C338.573 761.366 296.727 756.315 242.615 754.872L242.615 948.594C315.486 956.53 368.155 953.644 400.622 939.936C433.089 926.227 449.323 900.254 449.323 862.014ZM-55.0021 1141.16L-34.4396 1141.16L-29.0283 1157.39C-25.4208 1171.82 -19.2882 1181.56 -10.6302 1186.61C-1.97234 1192.38 9.5716 1195.27 24.0015 1195.27L341.099 1195.27C356.972 1194.55 368.876 1191.66 376.813 1186.61C385.471 1181.56 391.243 1171.82 394.129 1157.39L398.458 1141.16L417.938 1141.16L480.708 1317.56L468.803 1330.55L373.566 1340.29L365.99 1340.29C386.192 1351.11 404.951 1364.82 422.267 1381.41C439.583 1398.01 453.652 1416.05 464.474 1435.53C475.297 1455.01 480.708 1474.49 480.708 1493.97C480.708 1521.38 473.493 1541.95 459.063 1555.66C444.633 1569.36 426.235 1576.22 403.869 1576.22C379.338 1576.22 360.579 1569.36 347.592 1555.66C335.327 1541.95 329.194 1525.35 329.194 1505.87C329.194 1477.01 342.181 1452.12 368.155 1431.2L370.319 1429.03C378.977 1421.82 383.667 1413.52 384.388 1404.14C385.831 1395.48 381.502 1386.83 371.401 1378.17C364.187 1370.95 355.529 1364.1 345.428 1357.61C336.048 1351.83 324.865 1346.42 311.878 1341.37L28.3305 1341.37C14.6221 1341.37 3.07813 1344.26 -6.30127 1350.03C-14.9592 1355.8 -21.0919 1365.54 -24.6993 1379.25L-34.4396 1411.72L-55.0021 1411.72L-55.0021 1141.16ZM-70.1536 1747.25C-70.1536 1706.13 -58.6097 1671.14 -35.5219 1642.28C-11.7125 1614.14 22.1978 1600.07 66.209 1600.07C100.841 1600.07 132.587 1616.66 161.446 1649.85C191.028 1683.76 212.673 1736.79 226.381 1808.94C229.267 1821.21 231.792 1835.28 233.957 1851.15C236.843 1867.74 239.729 1883.98 242.615 1899.85L319.454 1899.85C368.515 1899.85 402.426 1893.72 421.185 1881.45C439.943 1869.19 449.323 1849.71 449.323 1823.01L449.323 1819.77C449.323 1803.17 443.912 1789.82 433.089 1779.72C422.988 1770.34 406.033 1764.21 382.224 1761.32L368.155 1758.08C339.295 1755.91 318.011 1748.34 304.302 1735.35C291.315 1722.36 284.822 1706.13 284.822 1686.65C284.822 1668.61 290.233 1653.46 301.056 1641.2C312.6 1629.65 327.39 1623.88 345.428 1623.88C375.009 1623.88 399.901 1633.98 420.102 1654.18C440.304 1674.38 455.456 1701.08 465.557 1734.27C475.658 1768.18 480.708 1804.61 480.708 1843.57C480.708 1907.79 465.196 1956.85 434.172 1990.76C403.147 2024.67 352.643 2041.63 282.658 2041.63L41.3174 2041.63C10.2931 2041.63 -5.21908 2056.42 -5.21909 2086L-5.21909 2110.89L-17.1237 2121.71C-33.7181 2108.72 -46.3442 2094.29 -55.0022 2078.42C-64.3816 2062.55 -69.0713 2040.9 -69.0713 2013.49C-69.0713 1982.46 -61.8564 1957.57 -47.4265 1938.81C-32.2751 1920.77 -12.434 1908.87 12.0968 1903.1C-12.434 1880.01 -32.2751 1857.28 -47.4265 1834.92C-62.5779 1812.55 -70.1536 1783.33 -70.1536 1747.25ZM-0.890094 1810.02C-0.890094 1824.45 2.35667 1838.16 8.85014 1851.15C15.3435 1864.14 26.166 1880.37 41.3174 1899.85L214.476 1899.85C211.59 1881.09 207.983 1861.97 203.654 1842.49C196.439 1811.47 183.091 1786.22 163.611 1766.74C144.13 1747.98 117.796 1738.6 84.6071 1738.6C55.7473 1738.6 34.1025 1745.09 19.6725 1758.08C5.96416 1771.79 -0.890093 1789.1 -0.890094 1810.02ZM-305 2125.11L-284.438 2125.11L-280.109 2139.18C-276.501 2153.61 -270.369 2163.71 -261.711 2169.48C-253.774 2175.25 -242.23 2178.14 -227.079 2178.14C-197.497 2178.14 -169.359 2178.14 -142.664 2178.14C-116.69 2178.86 -91.4377 2179.22 -66.9069 2179.22L230.71 2179.22C253.076 2179.22 272.196 2179.22 288.069 2179.22C304.663 2179.22 323.061 2178.86 343.263 2178.14C358.415 2178.14 369.958 2175.61 377.895 2170.56C386.553 2165.51 392.325 2155.77 395.211 2141.34L398.458 2125.11L417.938 2125.11L480.708 2299.35L469.886 2312.34L429.843 2322.08C463.753 2371.86 480.708 2428.14 480.708 2490.91C480.708 2552.24 457.62 2601.3 411.444 2638.09C365.269 2675.61 297.087 2694.37 206.9 2694.37C119.6 2694.37 51.4183 2673.81 2.3567 2632.68C-45.9835 2592.28 -70.1536 2537.08 -70.1536 2467.1C-70.1536 2438.96 -67.6284 2412.27 -62.5779 2387.01C-57.5275 2362.48 -49.9518 2340.48 -39.8508 2321L-72.3182 2321C-93.963 2321 -117.412 2321 -142.664 2321C-167.916 2321.72 -195.333 2322.08 -224.914 2322.08C-253.774 2322.08 -271.812 2334.7 -279.027 2359.96L-284.438 2380.52L-305 2380.52L-305 2125.11ZM-26.8639 2416.23C-26.8639 2454.47 -9.9088 2484.41 24.0015 2506.06C58.6333 2528.43 118.157 2539.61 202.572 2539.61C286.265 2539.61 344.706 2529.15 377.895 2508.22C411.805 2487.3 428.76 2457.72 428.76 2419.48C428.76 2405.77 426.596 2390.98 422.267 2375.11C417.938 2359.24 410.723 2342.28 400.622 2324.24L-8.4658 2324.24C-20.7312 2353.1 -26.8639 2383.77 -26.8639 2416.23ZM540.231 2869.98C540.231 2846.17 547.807 2825.97 562.958 2809.37C578.11 2792.78 597.229 2784.48 620.317 2784.48C644.127 2784.48 663.246 2792.78 677.676 2809.37C692.828 2825.97 700.403 2846.17 700.403 2869.98C700.403 2893.79 692.828 2913.99 677.676 2930.59C663.246 2947.18 644.127 2955.48 620.317 2955.48C597.229 2955.48 578.11 2947.18 562.958 2930.59C547.807 2913.99 540.231 2893.79 540.231 2869.98ZM-55.0022 2745.52L-34.4396 2745.52L-30.1107 2761.76C-25.7817 2776.19 -19.2883 2785.93 -10.6303 2790.98C-1.97241 2796.03 9.57153 2798.91 24.0015 2799.63L223.134 2799.63C245.501 2799.63 266.063 2799.63 284.822 2799.63C304.302 2799.63 324.143 2799.27 344.345 2798.55C358.775 2798.55 369.958 2795.67 377.895 2789.89C386.553 2784.84 392.325 2775.1 395.211 2760.67L398.457 2745.52L417.938 2745.52L480.708 2934.92L468.803 2947.9L315.125 2944.66L22.9192 2944.65C8.48931 2944.65 -3.05457 2947.18 -11.7125 2952.23C-20.3705 2958 -26.864 2967.74 -31.1929 2981.45L-34.4396 2993.36L-55.0022 2993.36L-55.0022 2745.52ZM-70.1536 3198.35C-70.1536 3157.22 -58.6098 3122.23 -35.5219 3093.37C-11.7125 3065.23 22.1977 3051.16 66.2089 3051.16C100.841 3051.16 132.586 3067.76 161.446 3100.95C191.028 3134.86 212.672 3187.89 226.381 3260.04C229.267 3272.3 231.792 3286.37 233.957 3302.24C236.843 3318.84 239.729 3335.07 242.614 3350.94L319.454 3350.94C368.515 3350.94 402.426 3344.81 421.185 3332.55C439.943 3320.28 449.323 3300.8 449.323 3274.11L449.323 3270.86C449.323 3254.26 443.912 3240.92 433.089 3230.82C422.988 3221.44 406.033 3215.3 382.224 3212.42L368.155 3209.17C339.295 3207.01 318.011 3199.43 304.302 3186.44C291.315 3173.46 284.822 3157.22 284.822 3137.74C284.822 3119.7 290.233 3104.55 301.056 3092.29C312.6 3080.74 327.39 3074.97 345.428 3074.97C375.009 3074.97 399.9 3085.07 420.102 3105.28C440.304 3125.48 455.456 3152.17 465.557 3185.36C475.657 3219.27 480.708 3255.71 480.708 3294.67C480.708 3358.88 465.196 3407.94 434.171 3441.85C403.147 3475.76 352.643 3492.72 282.657 3492.72L41.3173 3492.72C10.293 3492.72 -5.21915 3507.51 -5.21915 3537.09L-5.21915 3561.98L-17.1238 3572.8C-33.7182 3559.82 -46.3443 3545.39 -55.0022 3529.51C-64.3817 3513.64 -69.0714 3492 -69.0714 3464.58C-69.0714 3433.56 -61.8565 3408.66 -47.4265 3389.9C-32.2752 3371.87 -12.434 3359.96 12.0968 3354.19C-12.434 3331.1 -32.2752 3308.38 -47.4265 3286.01C-62.578 3263.64 -70.1536 3234.42 -70.1536 3198.35ZM-0.890157 3261.12C-0.890158 3275.55 2.35661 3289.26 8.85008 3302.24C15.3435 3315.23 26.1659 3331.46 41.3173 3350.94L214.476 3350.94C211.59 3332.19 207.983 3313.07 203.654 3293.59C196.439 3262.56 183.091 3237.31 163.611 3217.83C144.13 3199.07 117.796 3189.69 84.607 3189.69C55.7472 3189.69 34.1024 3196.18 19.6725 3209.17C5.96409 3222.88 -0.890156 3240.19 -0.890157 3261.12Z" stroke="#D94881" stroke-opacity="0.54" stroke-width="2.70425" mask="url(#path-1-outside-1_66_421)"></path></g></svg>