<svg xmlns="http://www.w3.org/2000/svg" width="658" height="2193" viewBox="0 0 658 2193" fill="none"><g opacity="0.62"><mask id="path-1-outside-1_66_53" maskUnits="userSpaceOnUse" x="-126" y="-581" width="784" height="2774" fill="black"><rect fill="white" x="-126" y="-581" width="784" height="2774"></rect><path d="M69.9505 -463.133L87.5823 -463.133L94.2992 -429.549C99.3369 -406.04 113.051 -394.285 135.44 -394.285L364.654 -394.285C403.836 -394.285 443.018 -394.285 482.2 -394.285C521.382 -394.285 560.564 -394.565 599.746 -395.125L599.746 -461.454C599.746 -479.366 594.988 -492.52 585.473 -500.916C575.957 -509.312 562.523 -517.708 545.171 -526.104L483.04 -555.491L483.04 -579L624.934 -574.802L624.934 -92.8643L483.04 -88.6662L483.04 -112.175L545.171 -141.562C562.523 -149.958 575.957 -158.354 585.473 -166.75C594.988 -175.146 599.746 -188.3 599.746 -206.212L599.746 -273.381L135.44 -273.381C112.491 -273.381 98.7771 -261.626 94.2992 -238.117L87.5823 -203.693L69.9505 -203.693L69.9505 -463.133ZM485.559 92.5458C485.559 127.81 478.282 158.036 463.729 183.224C449.175 208.412 429.025 227.723 403.277 241.157C378.088 255.151 348.982 262.148 315.957 262.148C308.68 262.148 301.683 261.868 294.967 261.308C288.809 260.748 282.932 259.629 277.335 257.949L277.335 5.22606C219.681 5.78581 178.26 16.4209 153.072 37.1313C127.884 58.4015 115.29 89.1873 115.29 129.489C115.29 157.476 119.767 180.145 128.723 197.497C138.239 214.849 151.393 230.802 168.185 245.355L155.591 258.789C124.805 241.997 100.736 219.047 83.3842 189.941C66.592 161.394 58.1959 127.25 58.1959 87.508C58.1959 47.7664 66.592 12.7825 83.3843 -17.4436C100.177 -47.6696 124.245 -71.4586 155.591 -88.8106C187.496 -105.603 225.559 -113.999 269.778 -113.999C315.677 -113.999 354.579 -104.203 386.484 -84.6125C418.39 -64.4618 442.738 -38.7136 459.531 -7.36811C476.883 24.5372 485.559 57.8418 485.559 92.5458ZM461.21 88.3476C461.21 72.1152 456.452 57.8417 446.936 45.5275C437.981 33.7729 421.748 24.2573 398.239 16.9806C375.29 10.2637 342.825 6.34551 300.844 5.22606L300.844 155.517C357.378 161.674 398.239 159.435 423.427 148.8C448.616 138.165 461.21 118.014 461.21 88.3476ZM69.9505 304.909L85.9031 304.909L90.1012 317.503C92.8999 328.698 97.6576 336.254 104.375 340.172C111.091 344.65 120.047 346.889 131.242 346.889L377.249 346.889C389.563 346.33 398.799 344.091 404.956 340.172C411.673 336.254 416.151 328.698 418.39 317.503L421.748 304.909L436.861 304.909L485.559 441.765L476.323 451.841L402.437 459.397L396.56 459.397C412.232 467.794 426.786 478.429 440.22 491.303C453.653 504.177 464.568 518.17 472.964 533.283C481.361 548.396 485.559 563.509 485.559 578.622C485.559 599.893 479.961 615.845 468.766 626.48C457.572 637.115 443.298 642.433 425.946 642.433C406.915 642.433 392.362 637.115 382.286 626.48C372.771 615.845 368.013 602.971 368.013 587.858C368.013 565.468 378.088 546.157 398.239 529.925L399.918 528.246C406.635 522.648 410.273 516.211 410.833 508.934C411.953 502.218 408.594 495.501 400.758 488.784C395.16 483.186 388.443 477.869 380.607 472.831C373.33 468.353 364.654 464.155 354.579 460.237L134.601 460.237C123.965 460.237 115.01 462.476 107.733 466.954C101.016 471.432 96.2583 478.988 93.4596 489.623L85.9031 514.812L69.9505 514.812L69.9505 304.909ZM58.1959 775.124C58.1959 743.219 67.1517 716.072 85.0634 693.682C103.535 671.852 129.843 660.937 163.987 660.937C190.855 660.937 215.483 673.811 237.873 699.559C260.822 725.867 277.615 767.008 288.25 822.982C290.489 832.498 292.448 843.413 294.127 855.727C296.366 868.601 298.605 881.195 300.844 893.51L360.456 893.51C398.519 893.51 424.827 888.752 439.38 879.236C453.933 869.721 461.21 854.608 461.21 833.897L461.21 831.378C461.21 818.504 457.012 808.149 448.616 800.313C440.779 793.036 427.625 788.278 409.154 786.039L398.239 783.521C375.849 781.841 359.337 775.964 348.702 765.889C338.626 755.813 333.589 743.219 333.589 728.106C333.589 714.112 337.787 702.358 346.183 692.842C355.139 683.886 366.614 679.408 380.607 679.408C403.556 679.408 422.868 687.245 438.54 702.918C454.213 718.591 465.968 739.301 473.804 765.049C481.64 791.357 485.559 819.624 485.559 849.85C485.559 899.667 473.524 937.729 449.455 964.037C425.386 990.345 386.204 1003.5 331.91 1003.5L144.676 1003.5C120.607 1003.5 108.573 1014.97 108.573 1037.92L108.573 1057.23L99.3368 1065.63C86.4628 1055.55 76.6673 1044.36 69.9504 1032.05C62.6738 1019.73 59.0355 1002.94 59.0355 981.669C59.0355 957.6 64.6329 938.289 75.8277 923.736C87.5823 909.742 102.975 900.507 122.006 896.028C102.975 878.117 87.5823 860.485 75.8277 843.133C64.0731 825.781 58.1959 803.111 58.1959 775.124ZM111.931 823.822C111.931 835.017 114.45 845.652 119.488 855.727C124.525 865.802 132.921 878.397 144.676 893.51L279.014 893.51C276.775 878.956 273.976 864.123 270.618 849.01C265.02 824.941 254.665 805.35 239.552 790.237C224.439 775.684 204.009 768.407 178.26 768.407C155.871 768.407 139.078 773.445 127.884 783.521C117.249 794.156 111.931 807.589 111.931 823.822ZM-124 1068.27L-108.047 1068.27L-104.689 1079.18C-101.89 1090.38 -97.1325 1098.21 -90.4156 1102.69C-84.2584 1107.17 -75.3026 1109.41 -63.548 1109.41C-40.5986 1109.41 -18.7687 1109.41 1.94176 1109.41C22.0925 1109.97 41.6834 1110.25 60.7146 1110.25L291.608 1110.25C308.96 1110.25 323.793 1110.25 336.108 1110.25C348.982 1110.25 363.255 1109.97 378.928 1109.41C390.682 1109.41 399.638 1107.45 405.795 1103.53C412.512 1099.61 416.99 1092.06 419.229 1080.86L421.748 1068.27L436.861 1068.27L485.559 1203.44L477.162 1213.52L446.097 1221.08C472.405 1259.7 485.559 1303.36 485.559 1352.06C485.559 1399.63 467.647 1437.7 431.823 1466.24C396 1495.35 343.104 1509.9 273.137 1509.9C205.408 1509.9 152.512 1493.95 114.45 1462.05C76.9472 1430.7 58.1958 1387.88 58.1958 1333.58C58.1958 1311.75 60.1549 1291.04 64.0731 1271.45C67.9913 1252.42 73.8686 1235.35 81.7049 1220.24L56.5166 1220.24C39.7243 1220.24 21.5327 1220.24 1.94175 1220.24C-17.6492 1220.8 -38.9194 1221.08 -61.8688 1221.08C-84.2584 1221.08 -98.252 1230.87 -103.849 1250.46L-108.047 1266.42L-124 1266.42L-124 1068.27ZM91.7803 1294.12C91.7803 1323.79 104.934 1347.02 131.242 1363.81C158.11 1381.16 204.288 1389.84 269.778 1389.84C334.708 1389.84 380.047 1381.72 405.795 1365.49C432.103 1349.26 445.257 1326.31 445.257 1296.64C445.257 1286.01 443.578 1274.53 440.22 1262.22C436.861 1249.9 431.264 1236.75 423.427 1222.76L106.054 1222.76C96.5381 1245.15 91.7803 1268.93 91.7803 1294.12ZM531.737 1646.14C531.737 1627.67 537.615 1612 549.369 1599.13C561.124 1586.25 575.957 1579.81 593.869 1579.81C612.34 1579.81 627.173 1586.25 638.368 1599.13C650.123 1612 656 1627.67 656 1646.14C656 1664.62 650.123 1680.29 638.368 1693.16C627.173 1706.04 612.34 1712.47 593.869 1712.47C575.957 1712.47 561.124 1706.04 549.369 1693.16C537.615 1680.29 531.737 1664.62 531.737 1646.14ZM69.9504 1549.59L85.903 1549.59L89.2615 1562.18C92.6199 1573.38 97.6576 1580.93 104.374 1584.85C111.091 1588.77 120.047 1591.01 131.242 1591.57L285.731 1591.57C303.083 1591.57 319.035 1591.57 333.589 1591.57C348.702 1591.57 364.095 1591.29 379.767 1590.73C390.962 1590.73 399.638 1588.49 405.795 1584.01C412.512 1580.09 416.99 1572.54 419.229 1561.34L421.748 1549.59L436.861 1549.59L485.559 1696.52L476.323 1706.6L357.098 1704.08L130.402 1704.08C119.208 1704.08 110.252 1706.04 103.535 1709.95C96.818 1714.43 91.7803 1721.99 88.4218 1732.62L85.903 1741.86L69.9504 1741.86L69.9504 1549.59ZM58.1958 1900.89C58.1958 1868.99 67.1516 1841.84 85.0634 1819.45C103.535 1797.62 129.843 1786.71 163.987 1786.71C190.855 1786.71 215.483 1799.58 237.873 1825.33C260.822 1851.64 277.615 1892.78 288.25 1948.75C290.489 1958.27 292.448 1969.18 294.127 1981.5C296.366 1994.37 298.605 2006.96 300.844 2019.28L360.456 2019.28C398.519 2019.28 424.827 2014.52 439.38 2005.01C453.933 1995.49 461.21 1980.38 461.21 1959.67L461.21 1957.15C461.21 1944.27 457.012 1933.92 448.616 1926.08C440.779 1918.81 427.625 1914.05 409.154 1911.81L398.239 1909.29C375.849 1907.61 359.337 1901.73 348.702 1891.66C338.626 1881.58 333.589 1868.99 333.589 1853.88C333.589 1839.88 337.787 1828.13 346.183 1818.61C355.139 1809.66 366.613 1805.18 380.607 1805.18C403.556 1805.18 422.867 1813.01 438.54 1828.69C454.213 1844.36 465.968 1865.07 473.804 1890.82C481.64 1917.13 485.559 1945.39 485.559 1975.62C485.559 2025.44 473.524 2063.5 449.455 2089.81C425.386 2116.11 386.204 2129.27 331.909 2129.27L144.676 2129.27C120.607 2129.27 108.573 2140.74 108.573 2163.69L108.573 2183L99.3368 2191.4C86.4627 2181.32 76.6673 2170.13 69.9504 2157.82C62.6738 2145.5 59.0354 2128.71 59.0354 2107.44C59.0354 2083.37 64.6328 2064.06 75.8276 2049.51C87.5822 2035.51 102.975 2026.28 122.006 2021.8C102.975 2003.89 87.5822 1986.25 75.8276 1968.9C64.0731 1951.55 58.1958 1928.88 58.1958 1900.89ZM111.931 1949.59C111.931 1960.79 114.45 1971.42 119.487 1981.5C124.525 1991.57 132.921 2004.17 144.676 2019.28L279.014 2019.28C276.775 2004.73 273.976 1989.89 270.618 1974.78C265.02 1950.71 254.665 1931.12 239.552 1916.01C224.439 1901.45 204.008 1894.18 178.26 1894.18C155.871 1894.18 139.078 1899.21 127.884 1909.29C117.249 1919.92 111.931 1933.36 111.931 1949.59Z"></path></mask><path d="M69.9505 -463.133L87.5823 -463.133L94.2992 -429.549C99.3369 -406.04 113.051 -394.285 135.44 -394.285L364.654 -394.285C403.836 -394.285 443.018 -394.285 482.2 -394.285C521.382 -394.285 560.564 -394.565 599.746 -395.125L599.746 -461.454C599.746 -479.366 594.988 -492.52 585.473 -500.916C575.957 -509.312 562.523 -517.708 545.171 -526.104L483.04 -555.491L483.04 -579L624.934 -574.802L624.934 -92.8643L483.04 -88.6662L483.04 -112.175L545.171 -141.562C562.523 -149.958 575.957 -158.354 585.473 -166.75C594.988 -175.146 599.746 -188.3 599.746 -206.212L599.746 -273.381L135.44 -273.381C112.491 -273.381 98.7771 -261.626 94.2992 -238.117L87.5823 -203.693L69.9505 -203.693L69.9505 -463.133ZM485.559 92.5458C485.559 127.81 478.282 158.036 463.729 183.224C449.175 208.412 429.025 227.723 403.277 241.157C378.088 255.151 348.982 262.148 315.957 262.148C308.68 262.148 301.683 261.868 294.967 261.308C288.809 260.748 282.932 259.629 277.335 257.949L277.335 5.22606C219.681 5.78581 178.26 16.4209 153.072 37.1313C127.884 58.4015 115.29 89.1873 115.29 129.489C115.29 157.476 119.767 180.145 128.723 197.497C138.239 214.849 151.393 230.802 168.185 245.355L155.591 258.789C124.805 241.997 100.736 219.047 83.3842 189.941C66.592 161.394 58.1959 127.25 58.1959 87.508C58.1959 47.7664 66.592 12.7825 83.3843 -17.4436C100.177 -47.6696 124.245 -71.4586 155.591 -88.8106C187.496 -105.603 225.559 -113.999 269.778 -113.999C315.677 -113.999 354.579 -104.203 386.484 -84.6125C418.39 -64.4618 442.738 -38.7136 459.531 -7.36811C476.883 24.5372 485.559 57.8418 485.559 92.5458ZM461.21 88.3476C461.21 72.1152 456.452 57.8417 446.936 45.5275C437.981 33.7729 421.748 24.2573 398.239 16.9806C375.29 10.2637 342.825 6.34551 300.844 5.22606L300.844 155.517C357.378 161.674 398.239 159.435 423.427 148.8C448.616 138.165 461.21 118.014 461.21 88.3476ZM69.9505 304.909L85.9031 304.909L90.1012 317.503C92.8999 328.698 97.6576 336.254 104.375 340.172C111.091 344.65 120.047 346.889 131.242 346.889L377.249 346.889C389.563 346.33 398.799 344.091 404.956 340.172C411.673 336.254 416.151 328.698 418.39 317.503L421.748 304.909L436.861 304.909L485.559 441.765L476.323 451.841L402.437 459.397L396.56 459.397C412.232 467.794 426.786 478.429 440.22 491.303C453.653 504.177 464.568 518.17 472.964 533.283C481.361 548.396 485.559 563.509 485.559 578.622C485.559 599.893 479.961 615.845 468.766 626.48C457.572 637.115 443.298 642.433 425.946 642.433C406.915 642.433 392.362 637.115 382.286 626.48C372.771 615.845 368.013 602.971 368.013 587.858C368.013 565.468 378.088 546.157 398.239 529.925L399.918 528.246C406.635 522.648 410.273 516.211 410.833 508.934C411.953 502.218 408.594 495.501 400.758 488.784C395.16 483.186 388.443 477.869 380.607 472.831C373.33 468.353 364.654 464.155 354.579 460.237L134.601 460.237C123.965 460.237 115.01 462.476 107.733 466.954C101.016 471.432 96.2583 478.988 93.4596 489.623L85.9031 514.812L69.9505 514.812L69.9505 304.909ZM58.1959 775.124C58.1959 743.219 67.1517 716.072 85.0634 693.682C103.535 671.852 129.843 660.937 163.987 660.937C190.855 660.937 215.483 673.811 237.873 699.559C260.822 725.867 277.615 767.008 288.25 822.982C290.489 832.498 292.448 843.413 294.127 855.727C296.366 868.601 298.605 881.195 300.844 893.51L360.456 893.51C398.519 893.51 424.827 888.752 439.38 879.236C453.933 869.721 461.21 854.608 461.21 833.897L461.21 831.378C461.21 818.504 457.012 808.149 448.616 800.313C440.779 793.036 427.625 788.278 409.154 786.039L398.239 783.521C375.849 781.841 359.337 775.964 348.702 765.889C338.626 755.813 333.589 743.219 333.589 728.106C333.589 714.112 337.787 702.358 346.183 692.842C355.139 683.886 366.614 679.408 380.607 679.408C403.556 679.408 422.868 687.245 438.54 702.918C454.213 718.591 465.968 739.301 473.804 765.049C481.64 791.357 485.559 819.624 485.559 849.85C485.559 899.667 473.524 937.729 449.455 964.037C425.386 990.345 386.204 1003.5 331.91 1003.5L144.676 1003.5C120.607 1003.5 108.573 1014.97 108.573 1037.92L108.573 1057.23L99.3368 1065.63C86.4628 1055.55 76.6673 1044.36 69.9504 1032.05C62.6738 1019.73 59.0355 1002.94 59.0355 981.669C59.0355 957.6 64.6329 938.289 75.8277 923.736C87.5823 909.742 102.975 900.507 122.006 896.028C102.975 878.117 87.5823 860.485 75.8277 843.133C64.0731 825.781 58.1959 803.111 58.1959 775.124ZM111.931 823.822C111.931 835.017 114.45 845.652 119.488 855.727C124.525 865.802 132.921 878.397 144.676 893.51L279.014 893.51C276.775 878.956 273.976 864.123 270.618 849.01C265.02 824.941 254.665 805.35 239.552 790.237C224.439 775.684 204.009 768.407 178.26 768.407C155.871 768.407 139.078 773.445 127.884 783.521C117.249 794.156 111.931 807.589 111.931 823.822ZM-124 1068.27L-108.047 1068.27L-104.689 1079.18C-101.89 1090.38 -97.1325 1098.21 -90.4156 1102.69C-84.2584 1107.17 -75.3026 1109.41 -63.548 1109.41C-40.5986 1109.41 -18.7687 1109.41 1.94176 1109.41C22.0925 1109.97 41.6834 1110.25 60.7146 1110.25L291.608 1110.25C308.96 1110.25 323.793 1110.25 336.108 1110.25C348.982 1110.25 363.255 1109.97 378.928 1109.41C390.682 1109.41 399.638 1107.45 405.795 1103.53C412.512 1099.61 416.99 1092.06 419.229 1080.86L421.748 1068.27L436.861 1068.27L485.559 1203.44L477.162 1213.52L446.097 1221.08C472.405 1259.7 485.559 1303.36 485.559 1352.06C485.559 1399.63 467.647 1437.7 431.823 1466.24C396 1495.35 343.104 1509.9 273.137 1509.9C205.408 1509.9 152.512 1493.95 114.45 1462.05C76.9472 1430.7 58.1958 1387.88 58.1958 1333.58C58.1958 1311.75 60.1549 1291.04 64.0731 1271.45C67.9913 1252.42 73.8686 1235.35 81.7049 1220.24L56.5166 1220.24C39.7243 1220.24 21.5327 1220.24 1.94175 1220.24C-17.6492 1220.8 -38.9194 1221.08 -61.8688 1221.08C-84.2584 1221.08 -98.252 1230.87 -103.849 1250.46L-108.047 1266.42L-124 1266.42L-124 1068.27ZM91.7803 1294.12C91.7803 1323.79 104.934 1347.02 131.242 1363.81C158.11 1381.16 204.288 1389.84 269.778 1389.84C334.708 1389.84 380.047 1381.72 405.795 1365.49C432.103 1349.26 445.257 1326.31 445.257 1296.64C445.257 1286.01 443.578 1274.53 440.22 1262.22C436.861 1249.9 431.264 1236.75 423.427 1222.76L106.054 1222.76C96.5381 1245.15 91.7803 1268.93 91.7803 1294.12ZM531.737 1646.14C531.737 1627.67 537.615 1612 549.369 1599.13C561.124 1586.25 575.957 1579.81 593.869 1579.81C612.34 1579.81 627.173 1586.25 638.368 1599.13C650.123 1612 656 1627.67 656 1646.14C656 1664.62 650.123 1680.29 638.368 1693.16C627.173 1706.04 612.34 1712.47 593.869 1712.47C575.957 1712.47 561.124 1706.04 549.369 1693.16C537.615 1680.29 531.737 1664.62 531.737 1646.14ZM69.9504 1549.59L85.903 1549.59L89.2615 1562.18C92.6199 1573.38 97.6576 1580.93 104.374 1584.85C111.091 1588.77 120.047 1591.01 131.242 1591.57L285.731 1591.57C303.083 1591.57 319.035 1591.57 333.589 1591.57C348.702 1591.57 364.095 1591.29 379.767 1590.73C390.962 1590.73 399.638 1588.49 405.795 1584.01C412.512 1580.09 416.99 1572.54 419.229 1561.34L421.748 1549.59L436.861 1549.59L485.559 1696.52L476.323 1706.6L357.098 1704.08L130.402 1704.08C119.208 1704.08 110.252 1706.04 103.535 1709.95C96.818 1714.43 91.7803 1721.99 88.4218 1732.62L85.903 1741.86L69.9504 1741.86L69.9504 1549.59ZM58.1958 1900.89C58.1958 1868.99 67.1516 1841.84 85.0634 1819.45C103.535 1797.62 129.843 1786.71 163.987 1786.71C190.855 1786.71 215.483 1799.58 237.873 1825.33C260.822 1851.64 277.615 1892.78 288.25 1948.75C290.489 1958.27 292.448 1969.18 294.127 1981.5C296.366 1994.37 298.605 2006.96 300.844 2019.28L360.456 2019.28C398.519 2019.28 424.827 2014.52 439.38 2005.01C453.933 1995.49 461.21 1980.38 461.21 1959.67L461.21 1957.15C461.21 1944.27 457.012 1933.92 448.616 1926.08C440.779 1918.81 427.625 1914.05 409.154 1911.81L398.239 1909.29C375.849 1907.61 359.337 1901.73 348.702 1891.66C338.626 1881.58 333.589 1868.99 333.589 1853.88C333.589 1839.88 337.787 1828.13 346.183 1818.61C355.139 1809.66 366.613 1805.18 380.607 1805.18C403.556 1805.18 422.867 1813.01 438.54 1828.69C454.213 1844.36 465.968 1865.07 473.804 1890.82C481.64 1917.13 485.559 1945.39 485.559 1975.62C485.559 2025.44 473.524 2063.5 449.455 2089.81C425.386 2116.11 386.204 2129.27 331.909 2129.27L144.676 2129.27C120.607 2129.27 108.573 2140.74 108.573 2163.69L108.573 2183L99.3368 2191.4C86.4627 2181.32 76.6673 2170.13 69.9504 2157.82C62.6738 2145.5 59.0354 2128.71 59.0354 2107.44C59.0354 2083.37 64.6328 2064.06 75.8276 2049.51C87.5822 2035.51 102.975 2026.28 122.006 2021.8C102.975 2003.89 87.5822 1986.25 75.8276 1968.9C64.0731 1951.55 58.1958 1928.88 58.1958 1900.89ZM111.931 1949.59C111.931 1960.79 114.45 1971.42 119.487 1981.5C124.525 1991.57 132.921 2004.17 144.676 2019.28L279.014 2019.28C276.775 2004.73 273.976 1989.89 270.618 1974.78C265.02 1950.71 254.665 1931.12 239.552 1916.01C224.439 1901.45 204.008 1894.18 178.26 1894.18C155.871 1894.18 139.078 1899.21 127.884 1909.29C117.249 1919.92 111.931 1933.36 111.931 1949.59Z" fill="#D94881" fill-opacity="0.03"></path><path d="M69.9505 -463.133L87.5823 -463.133L94.2992 -429.549C99.3369 -406.04 113.051 -394.285 135.44 -394.285L364.654 -394.285C403.836 -394.285 443.018 -394.285 482.2 -394.285C521.382 -394.285 560.564 -394.565 599.746 -395.125L599.746 -461.454C599.746 -479.366 594.988 -492.52 585.473 -500.916C575.957 -509.312 562.523 -517.708 545.171 -526.104L483.04 -555.491L483.04 -579L624.934 -574.802L624.934 -92.8643L483.04 -88.6662L483.04 -112.175L545.171 -141.562C562.523 -149.958 575.957 -158.354 585.473 -166.75C594.988 -175.146 599.746 -188.3 599.746 -206.212L599.746 -273.381L135.44 -273.381C112.491 -273.381 98.7771 -261.626 94.2992 -238.117L87.5823 -203.693L69.9505 -203.693L69.9505 -463.133ZM485.559 92.5458C485.559 127.81 478.282 158.036 463.729 183.224C449.175 208.412 429.025 227.723 403.277 241.157C378.088 255.151 348.982 262.148 315.957 262.148C308.68 262.148 301.683 261.868 294.967 261.308C288.809 260.748 282.932 259.629 277.335 257.949L277.335 5.22606C219.681 5.78581 178.26 16.4209 153.072 37.1313C127.884 58.4015 115.29 89.1873 115.29 129.489C115.29 157.476 119.767 180.145 128.723 197.497C138.239 214.849 151.393 230.802 168.185 245.355L155.591 258.789C124.805 241.997 100.736 219.047 83.3842 189.941C66.592 161.394 58.1959 127.25 58.1959 87.508C58.1959 47.7664 66.592 12.7825 83.3843 -17.4436C100.177 -47.6696 124.245 -71.4586 155.591 -88.8106C187.496 -105.603 225.559 -113.999 269.778 -113.999C315.677 -113.999 354.579 -104.203 386.484 -84.6125C418.39 -64.4618 442.738 -38.7136 459.531 -7.36811C476.883 24.5372 485.559 57.8418 485.559 92.5458ZM461.21 88.3476C461.21 72.1152 456.452 57.8417 446.936 45.5275C437.981 33.7729 421.748 24.2573 398.239 16.9806C375.29 10.2637 342.825 6.34551 300.844 5.22606L300.844 155.517C357.378 161.674 398.239 159.435 423.427 148.8C448.616 138.165 461.21 118.014 461.21 88.3476ZM69.9505 304.909L85.9031 304.909L90.1012 317.503C92.8999 328.698 97.6576 336.254 104.375 340.172C111.091 344.65 120.047 346.889 131.242 346.889L377.249 346.889C389.563 346.33 398.799 344.091 404.956 340.172C411.673 336.254 416.151 328.698 418.39 317.503L421.748 304.909L436.861 304.909L485.559 441.765L476.323 451.841L402.437 459.397L396.56 459.397C412.232 467.794 426.786 478.429 440.22 491.303C453.653 504.177 464.568 518.17 472.964 533.283C481.361 548.396 485.559 563.509 485.559 578.622C485.559 599.893 479.961 615.845 468.766 626.48C457.572 637.115 443.298 642.433 425.946 642.433C406.915 642.433 392.362 637.115 382.286 626.48C372.771 615.845 368.013 602.971 368.013 587.858C368.013 565.468 378.088 546.157 398.239 529.925L399.918 528.246C406.635 522.648 410.273 516.211 410.833 508.934C411.953 502.218 408.594 495.501 400.758 488.784C395.16 483.186 388.443 477.869 380.607 472.831C373.33 468.353 364.654 464.155 354.579 460.237L134.601 460.237C123.965 460.237 115.01 462.476 107.733 466.954C101.016 471.432 96.2583 478.988 93.4596 489.623L85.9031 514.812L69.9505 514.812L69.9505 304.909ZM58.1959 775.124C58.1959 743.219 67.1517 716.072 85.0634 693.682C103.535 671.852 129.843 660.937 163.987 660.937C190.855 660.937 215.483 673.811 237.873 699.559C260.822 725.867 277.615 767.008 288.25 822.982C290.489 832.498 292.448 843.413 294.127 855.727C296.366 868.601 298.605 881.195 300.844 893.51L360.456 893.51C398.519 893.51 424.827 888.752 439.38 879.236C453.933 869.721 461.21 854.608 461.21 833.897L461.21 831.378C461.21 818.504 457.012 808.149 448.616 800.313C440.779 793.036 427.625 788.278 409.154 786.039L398.239 783.521C375.849 781.841 359.337 775.964 348.702 765.889C338.626 755.813 333.589 743.219 333.589 728.106C333.589 714.112 337.787 702.358 346.183 692.842C355.139 683.886 366.614 679.408 380.607 679.408C403.556 679.408 422.868 687.245 438.54 702.918C454.213 718.591 465.968 739.301 473.804 765.049C481.64 791.357 485.559 819.624 485.559 849.85C485.559 899.667 473.524 937.729 449.455 964.037C425.386 990.345 386.204 1003.5 331.91 1003.5L144.676 1003.5C120.607 1003.5 108.573 1014.97 108.573 1037.92L108.573 1057.23L99.3368 1065.63C86.4628 1055.55 76.6673 1044.36 69.9504 1032.05C62.6738 1019.73 59.0355 1002.94 59.0355 981.669C59.0355 957.6 64.6329 938.289 75.8277 923.736C87.5823 909.742 102.975 900.507 122.006 896.028C102.975 878.117 87.5823 860.485 75.8277 843.133C64.0731 825.781 58.1959 803.111 58.1959 775.124ZM111.931 823.822C111.931 835.017 114.45 845.652 119.488 855.727C124.525 865.802 132.921 878.397 144.676 893.51L279.014 893.51C276.775 878.956 273.976 864.123 270.618 849.01C265.02 824.941 254.665 805.35 239.552 790.237C224.439 775.684 204.009 768.407 178.26 768.407C155.871 768.407 139.078 773.445 127.884 783.521C117.249 794.156 111.931 807.589 111.931 823.822ZM-124 1068.27L-108.047 1068.27L-104.689 1079.18C-101.89 1090.38 -97.1325 1098.21 -90.4156 1102.69C-84.2584 1107.17 -75.3026 1109.41 -63.548 1109.41C-40.5986 1109.41 -18.7687 1109.41 1.94176 1109.41C22.0925 1109.97 41.6834 1110.25 60.7146 1110.25L291.608 1110.25C308.96 1110.25 323.793 1110.25 336.108 1110.25C348.982 1110.25 363.255 1109.97 378.928 1109.41C390.682 1109.41 399.638 1107.45 405.795 1103.53C412.512 1099.61 416.99 1092.06 419.229 1080.86L421.748 1068.27L436.861 1068.27L485.559 1203.44L477.162 1213.52L446.097 1221.08C472.405 1259.7 485.559 1303.36 485.559 1352.06C485.559 1399.63 467.647 1437.7 431.823 1466.24C396 1495.35 343.104 1509.9 273.137 1509.9C205.408 1509.9 152.512 1493.95 114.45 1462.05C76.9472 1430.7 58.1958 1387.88 58.1958 1333.58C58.1958 1311.75 60.1549 1291.04 64.0731 1271.45C67.9913 1252.42 73.8686 1235.35 81.7049 1220.24L56.5166 1220.24C39.7243 1220.24 21.5327 1220.24 1.94175 1220.24C-17.6492 1220.8 -38.9194 1221.08 -61.8688 1221.08C-84.2584 1221.08 -98.252 1230.87 -103.849 1250.46L-108.047 1266.42L-124 1266.42L-124 1068.27ZM91.7803 1294.12C91.7803 1323.79 104.934 1347.02 131.242 1363.81C158.11 1381.16 204.288 1389.84 269.778 1389.84C334.708 1389.84 380.047 1381.72 405.795 1365.49C432.103 1349.26 445.257 1326.31 445.257 1296.64C445.257 1286.01 443.578 1274.53 440.22 1262.22C436.861 1249.9 431.264 1236.75 423.427 1222.76L106.054 1222.76C96.5381 1245.15 91.7803 1268.93 91.7803 1294.12ZM531.737 1646.14C531.737 1627.67 537.615 1612 549.369 1599.13C561.124 1586.25 575.957 1579.81 593.869 1579.81C612.34 1579.81 627.173 1586.25 638.368 1599.13C650.123 1612 656 1627.67 656 1646.14C656 1664.62 650.123 1680.29 638.368 1693.16C627.173 1706.04 612.34 1712.47 593.869 1712.47C575.957 1712.47 561.124 1706.04 549.369 1693.16C537.615 1680.29 531.737 1664.62 531.737 1646.14ZM69.9504 1549.59L85.903 1549.59L89.2615 1562.18C92.6199 1573.38 97.6576 1580.93 104.374 1584.85C111.091 1588.77 120.047 1591.01 131.242 1591.57L285.731 1591.57C303.083 1591.57 319.035 1591.57 333.589 1591.57C348.702 1591.57 364.095 1591.29 379.767 1590.73C390.962 1590.73 399.638 1588.49 405.795 1584.01C412.512 1580.09 416.99 1572.54 419.229 1561.34L421.748 1549.59L436.861 1549.59L485.559 1696.52L476.323 1706.6L357.098 1704.08L130.402 1704.08C119.208 1704.08 110.252 1706.04 103.535 1709.95C96.818 1714.43 91.7803 1721.99 88.4218 1732.62L85.903 1741.86L69.9504 1741.86L69.9504 1549.59ZM58.1958 1900.89C58.1958 1868.99 67.1516 1841.84 85.0634 1819.45C103.535 1797.62 129.843 1786.71 163.987 1786.71C190.855 1786.71 215.483 1799.58 237.873 1825.33C260.822 1851.64 277.615 1892.78 288.25 1948.75C290.489 1958.27 292.448 1969.18 294.127 1981.5C296.366 1994.37 298.605 2006.96 300.844 2019.28L360.456 2019.28C398.519 2019.28 424.827 2014.52 439.38 2005.01C453.933 1995.49 461.21 1980.38 461.21 1959.67L461.21 1957.15C461.21 1944.27 457.012 1933.92 448.616 1926.08C440.779 1918.81 427.625 1914.05 409.154 1911.81L398.239 1909.29C375.849 1907.61 359.337 1901.73 348.702 1891.66C338.626 1881.58 333.589 1868.99 333.589 1853.88C333.589 1839.88 337.787 1828.13 346.183 1818.61C355.139 1809.66 366.613 1805.18 380.607 1805.18C403.556 1805.18 422.867 1813.01 438.54 1828.69C454.213 1844.36 465.968 1865.07 473.804 1890.82C481.64 1917.13 485.559 1945.39 485.559 1975.62C485.559 2025.44 473.524 2063.5 449.455 2089.81C425.386 2116.11 386.204 2129.27 331.909 2129.27L144.676 2129.27C120.607 2129.27 108.573 2140.74 108.573 2163.69L108.573 2183L99.3368 2191.4C86.4627 2181.32 76.6673 2170.13 69.9504 2157.82C62.6738 2145.5 59.0354 2128.71 59.0354 2107.44C59.0354 2083.37 64.6328 2064.06 75.8276 2049.51C87.5822 2035.51 102.975 2026.28 122.006 2021.8C102.975 2003.89 87.5822 1986.25 75.8276 1968.9C64.0731 1951.55 58.1958 1928.88 58.1958 1900.89ZM111.931 1949.59C111.931 1960.79 114.45 1971.42 119.487 1981.5C124.525 1991.57 132.921 2004.17 144.676 2019.28L279.014 2019.28C276.775 2004.73 273.976 1989.89 270.618 1974.78C265.02 1950.71 254.665 1931.12 239.552 1916.01C224.439 1901.45 204.008 1894.18 178.26 1894.18C155.871 1894.18 139.078 1899.21 127.884 1909.29C117.249 1919.92 111.931 1933.36 111.931 1949.59Z" stroke="#D94881" stroke-opacity="0.5" stroke-width="2.09798" mask="url(#path-1-outside-1_66_53)"></path></g></svg>