<svg xmlns="http://www.w3.org/2000/svg" width="621" height="3575" viewBox="0 0 621 3575" fill="none"><g opacity="0.62"><mask id="path-1-outside-1_66_232" maskUnits="userSpaceOnUse" x="-387.596" y="-0.175825" width="1009" height="3575" fill="black"><rect fill="white" x="-387.596" y="-0.175825" width="1009" height="3575"></rect><path d="M-136.001 151.174L-113.274 151.174L-104.616 194.463C-98.1227 224.766 -80.446 239.918 -51.5862 239.918L243.866 239.918C294.371 239.918 344.875 239.918 395.38 239.918C445.885 239.918 496.389 239.557 546.894 238.835L546.894 153.338C546.894 130.25 540.761 113.295 528.496 102.473C516.23 91.6504 498.915 80.8279 476.548 70.0055L396.462 32.127L396.462 1.82421L579.361 7.23543L579.361 628.443L396.462 633.854L396.462 603.551L476.548 565.673C498.915 554.85 516.23 544.028 528.496 533.205C540.761 522.383 546.894 505.428 546.894 482.34L546.894 395.761L-51.5862 395.761C-81.1675 395.761 -98.8442 410.912 -104.616 441.215L-113.274 485.587L-136.001 485.587L-136.001 151.174ZM399.709 867.432C399.709 912.887 390.33 951.847 371.571 984.315C352.812 1016.78 326.838 1041.67 293.649 1058.99C261.182 1077.03 223.664 1086.05 181.096 1086.05C171.716 1086.05 162.698 1085.68 154.04 1084.96C146.103 1084.24 138.528 1082.8 131.313 1080.63L131.313 754.879C56.9988 755.601 3.60818 769.309 -28.8591 796.004C-61.3264 823.421 -77.5601 863.103 -77.5601 915.051C-77.5601 951.126 -71.7881 980.346 -60.2442 1002.71C-47.9787 1025.08 -31.0236 1045.64 -9.37877 1064.4L-25.6124 1081.72C-65.2947 1060.07 -96.319 1030.49 -118.685 992.973C-140.33 956.176 -151.153 912.165 -151.153 860.939C-151.153 809.713 -140.33 764.619 -118.685 725.659C-97.0404 686.698 -66.0161 656.034 -25.6124 633.668C15.5128 612.023 64.5745 601.201 121.573 601.201C180.735 601.201 230.879 613.827 272.004 639.079C313.13 665.053 344.515 698.242 366.159 738.646C388.526 779.771 399.709 822.7 399.709 867.432ZM368.324 862.021C368.324 841.098 362.191 822.7 349.926 806.827C338.382 791.675 317.459 779.41 287.156 770.031C257.574 761.373 215.728 756.322 161.616 754.879L161.616 948.601C234.487 956.537 287.156 953.651 319.623 939.943C352.09 926.234 368.324 900.26 368.324 862.021ZM-136.001 1141.16L-115.439 1141.16L-110.027 1157.4C-106.42 1171.83 -100.287 1181.57 -91.6293 1186.62C-82.9714 1192.39 -71.4274 1195.28 -56.9975 1195.28L260.1 1195.28C275.973 1194.55 287.877 1191.67 295.814 1186.62C304.472 1181.57 310.244 1171.83 313.13 1157.4L317.459 1141.16L336.939 1141.16L399.709 1317.57L387.804 1330.56L292.567 1340.3L284.991 1340.3C305.193 1351.12 323.952 1364.83 341.268 1381.42C358.584 1398.02 372.653 1416.05 383.475 1435.53C394.298 1455.01 399.709 1474.49 399.709 1493.97C399.709 1521.39 392.494 1541.95 378.064 1555.66C363.634 1569.37 345.236 1576.23 322.87 1576.23C298.339 1576.23 279.58 1569.37 266.593 1555.66C254.328 1541.95 248.195 1525.36 248.195 1505.88C248.195 1477.02 261.182 1452.13 287.156 1431.2L289.32 1429.04C297.978 1421.83 302.668 1413.53 303.389 1404.15C304.832 1395.49 300.503 1386.83 290.402 1378.17C283.188 1370.96 274.53 1364.11 264.429 1357.61C255.049 1351.84 243.866 1346.43 230.879 1341.38L-52.6685 1341.38C-66.377 1341.38 -77.9209 1344.26 -87.3003 1350.04C-95.9583 1355.81 -102.091 1365.55 -105.698 1379.26L-115.439 1411.72L-136.001 1411.72L-136.001 1141.16ZM-151.153 1747.26C-151.153 1706.14 -139.609 1671.14 -116.521 1642.28C-92.7115 1614.15 -58.8012 1600.08 -14.79 1600.08C19.8417 1600.08 51.5875 1616.67 80.4473 1649.86C110.029 1683.77 131.674 1736.8 145.382 1808.95C148.268 1821.22 150.793 1835.28 152.958 1851.16C155.844 1867.75 158.73 1883.99 161.616 1899.86L238.455 1899.86C287.516 1899.86 321.427 1893.73 340.186 1881.46C358.944 1869.19 368.324 1849.71 368.324 1823.02L368.324 1819.77C368.324 1803.18 362.913 1789.83 352.09 1779.73C341.989 1770.35 325.034 1764.22 301.225 1761.33L287.156 1758.08C258.296 1755.92 237.012 1748.34 223.303 1735.36C210.316 1722.37 203.823 1706.14 203.823 1686.66C203.823 1668.62 209.234 1653.47 220.057 1641.2C231.601 1629.66 246.391 1623.89 264.429 1623.89C294.01 1623.89 318.902 1633.99 339.103 1654.19C359.305 1674.39 374.457 1701.09 384.558 1734.28C394.659 1768.19 399.709 1804.62 399.709 1843.58C399.709 1907.79 384.197 1956.86 353.172 1990.77C322.148 2024.68 271.644 2041.63 201.659 2041.63L-39.6817 2041.63C-70.706 2041.63 -86.2181 2056.42 -86.2181 2086L-86.2181 2110.9L-98.1227 2121.72C-114.717 2108.73 -127.343 2094.3 -136.001 2078.43C-145.381 2062.56 -150.07 2040.91 -150.07 2013.49C-150.07 1982.47 -142.855 1957.58 -128.425 1938.82C-113.274 1920.78 -93.433 1908.88 -68.9022 1903.1C-93.433 1880.02 -113.274 1857.29 -128.425 1834.92C-143.577 1812.56 -151.153 1783.34 -151.153 1747.26ZM-81.8891 1810.03C-81.8891 1824.46 -78.6424 1838.17 -72.1489 1851.16C-65.6555 1864.14 -54.833 1880.38 -39.6817 1899.86L133.477 1899.86C130.591 1881.1 126.984 1861.98 122.655 1842.5C115.44 1811.47 102.092 1786.22 82.6118 1766.74C63.1315 1747.98 36.7969 1738.6 3.60808 1738.6C-25.2517 1738.6 -46.8966 1745.1 -61.3265 1758.08C-75.0349 1771.79 -81.8891 1789.11 -81.8891 1810.03ZM-385.999 2125.12L-365.437 2125.12L-361.108 2139.19C-357.5 2153.62 -351.368 2163.72 -342.71 2169.49C-334.773 2175.26 -323.229 2178.15 -308.078 2178.15C-278.496 2178.15 -250.358 2178.15 -223.663 2178.15C-197.689 2178.87 -172.437 2179.23 -147.906 2179.23L149.711 2179.23C172.077 2179.23 191.197 2179.23 207.07 2179.23C223.664 2179.23 242.062 2178.87 262.264 2178.15C277.416 2178.15 288.959 2175.62 296.896 2170.57C305.554 2165.52 311.326 2155.78 314.212 2141.35L317.458 2125.12L336.939 2125.12L399.709 2299.36L388.886 2312.34L348.844 2322.09C382.754 2371.87 399.709 2428.14 399.709 2490.91C399.709 2552.24 376.621 2601.3 330.445 2638.1C284.27 2675.62 216.088 2694.38 125.901 2694.38C38.6005 2694.38 -29.5807 2673.81 -78.6423 2632.69C-126.983 2592.28 -151.153 2537.09 -151.153 2467.11C-151.153 2438.97 -148.627 2412.27 -143.577 2387.02C-138.527 2362.49 -130.951 2340.48 -120.85 2321L-153.317 2321C-174.962 2321 -198.411 2321 -223.663 2321C-248.915 2321.72 -276.332 2322.09 -305.913 2322.09C-334.773 2322.09 -352.811 2334.71 -360.026 2359.96L-365.437 2380.53L-385.999 2380.53L-385.999 2125.12ZM-107.863 2416.24C-107.863 2454.48 -90.9078 2484.42 -56.9975 2506.07C-22.3658 2528.43 37.1576 2539.62 121.573 2539.62C205.266 2539.62 263.707 2529.15 296.896 2508.23C330.806 2487.31 347.761 2457.73 347.761 2419.49C347.761 2405.78 345.597 2390.99 341.268 2375.11C336.939 2359.24 329.724 2342.29 319.623 2324.25L-89.4648 2324.25C-101.73 2353.11 -107.863 2383.77 -107.863 2416.24ZM459.232 2869.99C459.232 2846.18 466.808 2825.98 481.959 2809.38C497.111 2792.79 516.23 2784.49 539.318 2784.49C563.128 2784.49 582.247 2792.79 596.677 2809.38C611.828 2825.98 619.404 2846.18 619.404 2869.99C619.404 2893.8 611.828 2914 596.677 2930.59C582.247 2947.19 563.128 2955.48 539.318 2955.48C516.23 2955.48 497.111 2947.19 481.959 2930.59C466.808 2914 459.232 2893.8 459.232 2869.99ZM-136.001 2745.53L-115.439 2745.53L-111.11 2761.76C-106.781 2776.19 -100.287 2785.93 -91.6293 2790.98C-82.9714 2796.03 -71.4275 2798.92 -56.9976 2799.64L142.135 2799.64C164.501 2799.64 185.064 2799.64 203.823 2799.64C223.303 2799.64 243.144 2799.28 263.346 2798.56C277.776 2798.56 288.959 2795.67 296.896 2789.9C305.554 2784.85 311.326 2775.11 314.212 2760.68L317.458 2745.53L336.939 2745.53L399.709 2934.92L387.804 2947.91L234.126 2944.66L-58.0798 2944.66C-72.5097 2944.66 -84.0536 2947.19 -92.7116 2952.24C-101.37 2958.01 -107.863 2967.75 -112.192 2981.46L-115.439 2993.36L-136.001 2993.36L-136.001 2745.53ZM-151.153 3198.35C-151.153 3157.23 -139.609 3122.24 -116.521 3093.38C-92.7116 3065.24 -58.8013 3051.17 -14.7901 3051.17C19.8417 3051.17 51.5875 3067.76 80.4473 3100.95C110.029 3134.86 131.673 3187.89 145.382 3260.04C148.268 3272.31 150.793 3286.38 152.958 3302.25C155.844 3318.84 158.729 3335.08 161.615 3350.95L238.455 3350.95C287.516 3350.95 321.427 3344.82 340.186 3332.55C358.944 3320.29 368.324 3300.81 368.324 3274.11L368.324 3270.86C368.324 3254.27 362.913 3240.92 352.09 3230.82C341.989 3221.44 325.034 3215.31 301.225 3212.42L287.156 3209.18C258.296 3207.01 237.012 3199.44 223.303 3186.45C210.316 3173.46 203.823 3157.23 203.823 3137.75C203.823 3119.71 209.234 3104.56 220.057 3092.3C231.601 3080.75 246.391 3074.98 264.429 3074.98C294.01 3074.98 318.901 3085.08 339.103 3105.28C359.305 3125.48 374.457 3152.18 384.558 3185.37C394.658 3219.28 399.709 3255.71 399.709 3294.67C399.709 3358.89 384.197 3407.95 353.172 3441.86C322.148 3475.77 271.643 3492.72 201.658 3492.72L-39.6817 3492.72C-70.706 3492.72 -86.2182 3507.52 -86.2182 3537.1L-86.2182 3561.99L-98.1228 3572.81C-114.717 3559.82 -127.343 3545.39 -136.001 3529.52C-145.381 3513.65 -150.07 3492 -150.07 3464.59C-150.07 3433.56 -142.855 3408.67 -128.426 3389.91C-113.274 3371.87 -93.4331 3359.97 -68.9022 3354.2C-93.4331 3331.11 -113.274 3308.38 -128.426 3286.02C-143.577 3263.65 -151.153 3234.43 -151.153 3198.35ZM-81.8892 3261.12C-81.8892 3275.55 -78.6424 3289.26 -72.1489 3302.25C-65.6555 3315.24 -54.8331 3331.47 -39.6817 3350.95L133.477 3350.95C130.591 3332.19 126.984 3313.07 122.655 3293.59C115.44 3262.57 102.092 3237.32 82.6117 3217.84C63.1314 3199.08 36.7968 3189.7 3.60801 3189.7C-25.2518 3189.7 -46.8966 3196.19 -61.3266 3209.18C-75.0349 3222.89 -81.8892 3240.2 -81.8892 3261.12Z"></path></mask><path d="M-136.001 151.174L-113.274 151.174L-104.616 194.463C-98.1227 224.766 -80.446 239.918 -51.5862 239.918L243.866 239.918C294.371 239.918 344.875 239.918 395.38 239.918C445.885 239.918 496.389 239.557 546.894 238.835L546.894 153.338C546.894 130.25 540.761 113.295 528.496 102.473C516.23 91.6504 498.915 80.8279 476.548 70.0055L396.462 32.127L396.462 1.82421L579.361 7.23543L579.361 628.443L396.462 633.854L396.462 603.551L476.548 565.673C498.915 554.85 516.23 544.028 528.496 533.205C540.761 522.383 546.894 505.428 546.894 482.34L546.894 395.761L-51.5862 395.761C-81.1675 395.761 -98.8442 410.912 -104.616 441.215L-113.274 485.587L-136.001 485.587L-136.001 151.174ZM399.709 867.432C399.709 912.887 390.33 951.847 371.571 984.315C352.812 1016.78 326.838 1041.67 293.649 1058.99C261.182 1077.03 223.664 1086.05 181.096 1086.05C171.716 1086.05 162.698 1085.68 154.04 1084.96C146.103 1084.24 138.528 1082.8 131.313 1080.63L131.313 754.879C56.9988 755.601 3.60818 769.309 -28.8591 796.004C-61.3264 823.421 -77.5601 863.103 -77.5601 915.051C-77.5601 951.126 -71.7881 980.346 -60.2442 1002.71C-47.9787 1025.08 -31.0236 1045.64 -9.37877 1064.4L-25.6124 1081.72C-65.2947 1060.07 -96.319 1030.49 -118.685 992.973C-140.33 956.176 -151.153 912.165 -151.153 860.939C-151.153 809.713 -140.33 764.619 -118.685 725.659C-97.0404 686.698 -66.0161 656.034 -25.6124 633.668C15.5128 612.023 64.5745 601.201 121.573 601.201C180.735 601.201 230.879 613.827 272.004 639.079C313.13 665.053 344.515 698.242 366.159 738.646C388.526 779.771 399.709 822.7 399.709 867.432ZM368.324 862.021C368.324 841.098 362.191 822.7 349.926 806.827C338.382 791.675 317.459 779.41 287.156 770.031C257.574 761.373 215.728 756.322 161.616 754.879L161.616 948.601C234.487 956.537 287.156 953.651 319.623 939.943C352.09 926.234 368.324 900.26 368.324 862.021ZM-136.001 1141.16L-115.439 1141.16L-110.027 1157.4C-106.42 1171.83 -100.287 1181.57 -91.6293 1186.62C-82.9714 1192.39 -71.4274 1195.28 -56.9975 1195.28L260.1 1195.28C275.973 1194.55 287.877 1191.67 295.814 1186.62C304.472 1181.57 310.244 1171.83 313.13 1157.4L317.459 1141.16L336.939 1141.16L399.709 1317.57L387.804 1330.56L292.567 1340.3L284.991 1340.3C305.193 1351.12 323.952 1364.83 341.268 1381.42C358.584 1398.02 372.653 1416.05 383.475 1435.53C394.298 1455.01 399.709 1474.49 399.709 1493.97C399.709 1521.39 392.494 1541.95 378.064 1555.66C363.634 1569.37 345.236 1576.23 322.87 1576.23C298.339 1576.23 279.58 1569.37 266.593 1555.66C254.328 1541.95 248.195 1525.36 248.195 1505.88C248.195 1477.02 261.182 1452.13 287.156 1431.2L289.32 1429.04C297.978 1421.83 302.668 1413.53 303.389 1404.15C304.832 1395.49 300.503 1386.83 290.402 1378.17C283.188 1370.96 274.53 1364.11 264.429 1357.61C255.049 1351.84 243.866 1346.43 230.879 1341.38L-52.6685 1341.38C-66.377 1341.38 -77.9209 1344.26 -87.3003 1350.04C-95.9583 1355.81 -102.091 1365.55 -105.698 1379.26L-115.439 1411.72L-136.001 1411.72L-136.001 1141.16ZM-151.153 1747.26C-151.153 1706.14 -139.609 1671.14 -116.521 1642.28C-92.7115 1614.15 -58.8012 1600.08 -14.79 1600.08C19.8417 1600.08 51.5875 1616.67 80.4473 1649.86C110.029 1683.77 131.674 1736.8 145.382 1808.95C148.268 1821.22 150.793 1835.28 152.958 1851.16C155.844 1867.75 158.73 1883.99 161.616 1899.86L238.455 1899.86C287.516 1899.86 321.427 1893.73 340.186 1881.46C358.944 1869.19 368.324 1849.71 368.324 1823.02L368.324 1819.77C368.324 1803.18 362.913 1789.83 352.09 1779.73C341.989 1770.35 325.034 1764.22 301.225 1761.33L287.156 1758.08C258.296 1755.92 237.012 1748.34 223.303 1735.36C210.316 1722.37 203.823 1706.14 203.823 1686.66C203.823 1668.62 209.234 1653.47 220.057 1641.2C231.601 1629.66 246.391 1623.89 264.429 1623.89C294.01 1623.89 318.902 1633.99 339.103 1654.19C359.305 1674.39 374.457 1701.09 384.558 1734.28C394.659 1768.19 399.709 1804.62 399.709 1843.58C399.709 1907.79 384.197 1956.86 353.172 1990.77C322.148 2024.68 271.644 2041.63 201.659 2041.63L-39.6817 2041.63C-70.706 2041.63 -86.2181 2056.42 -86.2181 2086L-86.2181 2110.9L-98.1227 2121.72C-114.717 2108.73 -127.343 2094.3 -136.001 2078.43C-145.381 2062.56 -150.07 2040.91 -150.07 2013.49C-150.07 1982.47 -142.855 1957.58 -128.425 1938.82C-113.274 1920.78 -93.433 1908.88 -68.9022 1903.1C-93.433 1880.02 -113.274 1857.29 -128.425 1834.92C-143.577 1812.56 -151.153 1783.34 -151.153 1747.26ZM-81.8891 1810.03C-81.8891 1824.46 -78.6424 1838.17 -72.1489 1851.16C-65.6555 1864.14 -54.833 1880.38 -39.6817 1899.86L133.477 1899.86C130.591 1881.1 126.984 1861.98 122.655 1842.5C115.44 1811.47 102.092 1786.22 82.6118 1766.74C63.1315 1747.98 36.7969 1738.6 3.60808 1738.6C-25.2517 1738.6 -46.8966 1745.1 -61.3265 1758.08C-75.0349 1771.79 -81.8891 1789.11 -81.8891 1810.03ZM-385.999 2125.12L-365.437 2125.12L-361.108 2139.19C-357.5 2153.62 -351.368 2163.72 -342.71 2169.49C-334.773 2175.26 -323.229 2178.15 -308.078 2178.15C-278.496 2178.15 -250.358 2178.15 -223.663 2178.15C-197.689 2178.87 -172.437 2179.23 -147.906 2179.23L149.711 2179.23C172.077 2179.23 191.197 2179.23 207.07 2179.23C223.664 2179.23 242.062 2178.87 262.264 2178.15C277.416 2178.15 288.959 2175.62 296.896 2170.57C305.554 2165.52 311.326 2155.78 314.212 2141.35L317.458 2125.12L336.939 2125.12L399.709 2299.36L388.886 2312.34L348.844 2322.09C382.754 2371.87 399.709 2428.14 399.709 2490.91C399.709 2552.24 376.621 2601.3 330.445 2638.1C284.27 2675.62 216.088 2694.38 125.901 2694.38C38.6005 2694.38 -29.5807 2673.81 -78.6423 2632.69C-126.983 2592.28 -151.153 2537.09 -151.153 2467.11C-151.153 2438.97 -148.627 2412.27 -143.577 2387.02C-138.527 2362.49 -130.951 2340.48 -120.85 2321L-153.317 2321C-174.962 2321 -198.411 2321 -223.663 2321C-248.915 2321.72 -276.332 2322.09 -305.913 2322.09C-334.773 2322.09 -352.811 2334.71 -360.026 2359.96L-365.437 2380.53L-385.999 2380.53L-385.999 2125.12ZM-107.863 2416.24C-107.863 2454.48 -90.9078 2484.42 -56.9975 2506.07C-22.3658 2528.43 37.1576 2539.62 121.573 2539.62C205.266 2539.62 263.707 2529.15 296.896 2508.23C330.806 2487.31 347.761 2457.73 347.761 2419.49C347.761 2405.78 345.597 2390.99 341.268 2375.11C336.939 2359.24 329.724 2342.29 319.623 2324.25L-89.4648 2324.25C-101.73 2353.11 -107.863 2383.77 -107.863 2416.24ZM459.232 2869.99C459.232 2846.18 466.808 2825.98 481.959 2809.38C497.111 2792.79 516.23 2784.49 539.318 2784.49C563.128 2784.49 582.247 2792.79 596.677 2809.38C611.828 2825.98 619.404 2846.18 619.404 2869.99C619.404 2893.8 611.828 2914 596.677 2930.59C582.247 2947.19 563.128 2955.48 539.318 2955.48C516.23 2955.48 497.111 2947.19 481.959 2930.59C466.808 2914 459.232 2893.8 459.232 2869.99ZM-136.001 2745.53L-115.439 2745.53L-111.11 2761.76C-106.781 2776.19 -100.287 2785.93 -91.6293 2790.98C-82.9714 2796.03 -71.4275 2798.92 -56.9976 2799.64L142.135 2799.64C164.501 2799.64 185.064 2799.64 203.823 2799.64C223.303 2799.64 243.144 2799.28 263.346 2798.56C277.776 2798.56 288.959 2795.67 296.896 2789.9C305.554 2784.85 311.326 2775.11 314.212 2760.68L317.458 2745.53L336.939 2745.53L399.709 2934.92L387.804 2947.91L234.126 2944.66L-58.0798 2944.66C-72.5097 2944.66 -84.0536 2947.19 -92.7116 2952.24C-101.37 2958.01 -107.863 2967.75 -112.192 2981.46L-115.439 2993.36L-136.001 2993.36L-136.001 2745.53ZM-151.153 3198.35C-151.153 3157.23 -139.609 3122.24 -116.521 3093.38C-92.7116 3065.24 -58.8013 3051.17 -14.7901 3051.17C19.8417 3051.17 51.5875 3067.76 80.4473 3100.95C110.029 3134.86 131.673 3187.89 145.382 3260.04C148.268 3272.31 150.793 3286.38 152.958 3302.25C155.844 3318.84 158.729 3335.08 161.615 3350.95L238.455 3350.95C287.516 3350.95 321.427 3344.82 340.186 3332.55C358.944 3320.29 368.324 3300.81 368.324 3274.11L368.324 3270.86C368.324 3254.27 362.913 3240.92 352.09 3230.82C341.989 3221.44 325.034 3215.31 301.225 3212.42L287.156 3209.18C258.296 3207.01 237.012 3199.44 223.303 3186.45C210.316 3173.46 203.823 3157.23 203.823 3137.75C203.823 3119.71 209.234 3104.56 220.057 3092.3C231.601 3080.75 246.391 3074.98 264.429 3074.98C294.01 3074.98 318.901 3085.08 339.103 3105.28C359.305 3125.48 374.457 3152.18 384.558 3185.37C394.658 3219.28 399.709 3255.71 399.709 3294.67C399.709 3358.89 384.197 3407.95 353.172 3441.86C322.148 3475.77 271.643 3492.72 201.658 3492.72L-39.6817 3492.72C-70.706 3492.72 -86.2182 3507.52 -86.2182 3537.1L-86.2182 3561.99L-98.1228 3572.81C-114.717 3559.82 -127.343 3545.39 -136.001 3529.52C-145.381 3513.65 -150.07 3492 -150.07 3464.59C-150.07 3433.56 -142.855 3408.67 -128.426 3389.91C-113.274 3371.87 -93.4331 3359.97 -68.9022 3354.2C-93.4331 3331.11 -113.274 3308.38 -128.426 3286.02C-143.577 3263.65 -151.153 3234.43 -151.153 3198.35ZM-81.8892 3261.12C-81.8892 3275.55 -78.6424 3289.26 -72.1489 3302.25C-65.6555 3315.24 -54.8331 3331.47 -39.6817 3350.95L133.477 3350.95C130.591 3332.19 126.984 3313.07 122.655 3293.59C115.44 3262.57 102.092 3237.32 82.6117 3217.84C63.1314 3199.08 36.7968 3189.7 3.60801 3189.7C-25.2518 3189.7 -46.8966 3196.19 -61.3266 3209.18C-75.0349 3222.89 -81.8892 3240.2 -81.8892 3261.12Z" fill="#D94881" fill-opacity="0.13"></path><path d="M-136.001 151.174L-113.274 151.174L-104.616 194.463C-98.1227 224.766 -80.446 239.918 -51.5862 239.918L243.866 239.918C294.371 239.918 344.875 239.918 395.38 239.918C445.885 239.918 496.389 239.557 546.894 238.835L546.894 153.338C546.894 130.25 540.761 113.295 528.496 102.473C516.23 91.6504 498.915 80.8279 476.548 70.0055L396.462 32.127L396.462 1.82421L579.361 7.23543L579.361 628.443L396.462 633.854L396.462 603.551L476.548 565.673C498.915 554.85 516.23 544.028 528.496 533.205C540.761 522.383 546.894 505.428 546.894 482.34L546.894 395.761L-51.5862 395.761C-81.1675 395.761 -98.8442 410.912 -104.616 441.215L-113.274 485.587L-136.001 485.587L-136.001 151.174ZM399.709 867.432C399.709 912.887 390.33 951.847 371.571 984.315C352.812 1016.78 326.838 1041.67 293.649 1058.99C261.182 1077.03 223.664 1086.05 181.096 1086.05C171.716 1086.05 162.698 1085.68 154.04 1084.96C146.103 1084.24 138.528 1082.8 131.313 1080.63L131.313 754.879C56.9988 755.601 3.60818 769.309 -28.8591 796.004C-61.3264 823.421 -77.5601 863.103 -77.5601 915.051C-77.5601 951.126 -71.7881 980.346 -60.2442 1002.71C-47.9787 1025.08 -31.0236 1045.64 -9.37877 1064.4L-25.6124 1081.72C-65.2947 1060.07 -96.319 1030.49 -118.685 992.973C-140.33 956.176 -151.153 912.165 -151.153 860.939C-151.153 809.713 -140.33 764.619 -118.685 725.659C-97.0404 686.698 -66.0161 656.034 -25.6124 633.668C15.5128 612.023 64.5745 601.201 121.573 601.201C180.735 601.201 230.879 613.827 272.004 639.079C313.13 665.053 344.515 698.242 366.159 738.646C388.526 779.771 399.709 822.7 399.709 867.432ZM368.324 862.021C368.324 841.098 362.191 822.7 349.926 806.827C338.382 791.675 317.459 779.41 287.156 770.031C257.574 761.373 215.728 756.322 161.616 754.879L161.616 948.601C234.487 956.537 287.156 953.651 319.623 939.943C352.09 926.234 368.324 900.26 368.324 862.021ZM-136.001 1141.16L-115.439 1141.16L-110.027 1157.4C-106.42 1171.83 -100.287 1181.57 -91.6293 1186.62C-82.9714 1192.39 -71.4274 1195.28 -56.9975 1195.28L260.1 1195.28C275.973 1194.55 287.877 1191.67 295.814 1186.62C304.472 1181.57 310.244 1171.83 313.13 1157.4L317.459 1141.16L336.939 1141.16L399.709 1317.57L387.804 1330.56L292.567 1340.3L284.991 1340.3C305.193 1351.12 323.952 1364.83 341.268 1381.42C358.584 1398.02 372.653 1416.05 383.475 1435.53C394.298 1455.01 399.709 1474.49 399.709 1493.97C399.709 1521.39 392.494 1541.95 378.064 1555.66C363.634 1569.37 345.236 1576.23 322.87 1576.23C298.339 1576.23 279.58 1569.37 266.593 1555.66C254.328 1541.95 248.195 1525.36 248.195 1505.88C248.195 1477.02 261.182 1452.13 287.156 1431.2L289.32 1429.04C297.978 1421.83 302.668 1413.53 303.389 1404.15C304.832 1395.49 300.503 1386.83 290.402 1378.17C283.188 1370.96 274.53 1364.11 264.429 1357.61C255.049 1351.84 243.866 1346.43 230.879 1341.38L-52.6685 1341.38C-66.377 1341.38 -77.9209 1344.26 -87.3003 1350.04C-95.9583 1355.81 -102.091 1365.55 -105.698 1379.26L-115.439 1411.72L-136.001 1411.72L-136.001 1141.16ZM-151.153 1747.26C-151.153 1706.14 -139.609 1671.14 -116.521 1642.28C-92.7115 1614.15 -58.8012 1600.08 -14.79 1600.08C19.8417 1600.08 51.5875 1616.67 80.4473 1649.86C110.029 1683.77 131.674 1736.8 145.382 1808.95C148.268 1821.22 150.793 1835.28 152.958 1851.16C155.844 1867.75 158.73 1883.99 161.616 1899.86L238.455 1899.86C287.516 1899.86 321.427 1893.73 340.186 1881.46C358.944 1869.19 368.324 1849.71 368.324 1823.02L368.324 1819.77C368.324 1803.18 362.913 1789.83 352.09 1779.73C341.989 1770.35 325.034 1764.22 301.225 1761.33L287.156 1758.08C258.296 1755.92 237.012 1748.34 223.303 1735.36C210.316 1722.37 203.823 1706.14 203.823 1686.66C203.823 1668.62 209.234 1653.47 220.057 1641.2C231.601 1629.66 246.391 1623.89 264.429 1623.89C294.01 1623.89 318.902 1633.99 339.103 1654.19C359.305 1674.39 374.457 1701.09 384.558 1734.28C394.659 1768.19 399.709 1804.62 399.709 1843.58C399.709 1907.79 384.197 1956.86 353.172 1990.77C322.148 2024.68 271.644 2041.63 201.659 2041.63L-39.6817 2041.63C-70.706 2041.63 -86.2181 2056.42 -86.2181 2086L-86.2181 2110.9L-98.1227 2121.72C-114.717 2108.73 -127.343 2094.3 -136.001 2078.43C-145.381 2062.56 -150.07 2040.91 -150.07 2013.49C-150.07 1982.47 -142.855 1957.58 -128.425 1938.82C-113.274 1920.78 -93.433 1908.88 -68.9022 1903.1C-93.433 1880.02 -113.274 1857.29 -128.425 1834.92C-143.577 1812.56 -151.153 1783.34 -151.153 1747.26ZM-81.8891 1810.03C-81.8891 1824.46 -78.6424 1838.17 -72.1489 1851.16C-65.6555 1864.14 -54.833 1880.38 -39.6817 1899.86L133.477 1899.86C130.591 1881.1 126.984 1861.98 122.655 1842.5C115.44 1811.47 102.092 1786.22 82.6118 1766.74C63.1315 1747.98 36.7969 1738.6 3.60808 1738.6C-25.2517 1738.6 -46.8966 1745.1 -61.3265 1758.08C-75.0349 1771.79 -81.8891 1789.11 -81.8891 1810.03ZM-385.999 2125.12L-365.437 2125.12L-361.108 2139.19C-357.5 2153.62 -351.368 2163.72 -342.71 2169.49C-334.773 2175.26 -323.229 2178.15 -308.078 2178.15C-278.496 2178.15 -250.358 2178.15 -223.663 2178.15C-197.689 2178.87 -172.437 2179.23 -147.906 2179.23L149.711 2179.23C172.077 2179.23 191.197 2179.23 207.07 2179.23C223.664 2179.23 242.062 2178.87 262.264 2178.15C277.416 2178.15 288.959 2175.62 296.896 2170.57C305.554 2165.52 311.326 2155.78 314.212 2141.35L317.458 2125.12L336.939 2125.12L399.709 2299.36L388.886 2312.34L348.844 2322.09C382.754 2371.87 399.709 2428.14 399.709 2490.91C399.709 2552.24 376.621 2601.3 330.445 2638.1C284.27 2675.62 216.088 2694.38 125.901 2694.38C38.6005 2694.38 -29.5807 2673.81 -78.6423 2632.69C-126.983 2592.28 -151.153 2537.09 -151.153 2467.11C-151.153 2438.97 -148.627 2412.27 -143.577 2387.02C-138.527 2362.49 -130.951 2340.48 -120.85 2321L-153.317 2321C-174.962 2321 -198.411 2321 -223.663 2321C-248.915 2321.72 -276.332 2322.09 -305.913 2322.09C-334.773 2322.09 -352.811 2334.71 -360.026 2359.96L-365.437 2380.53L-385.999 2380.53L-385.999 2125.12ZM-107.863 2416.24C-107.863 2454.48 -90.9078 2484.42 -56.9975 2506.07C-22.3658 2528.43 37.1576 2539.62 121.573 2539.62C205.266 2539.62 263.707 2529.15 296.896 2508.23C330.806 2487.31 347.761 2457.73 347.761 2419.49C347.761 2405.78 345.597 2390.99 341.268 2375.11C336.939 2359.24 329.724 2342.29 319.623 2324.25L-89.4648 2324.25C-101.73 2353.11 -107.863 2383.77 -107.863 2416.24ZM459.232 2869.99C459.232 2846.18 466.808 2825.98 481.959 2809.38C497.111 2792.79 516.23 2784.49 539.318 2784.49C563.128 2784.49 582.247 2792.79 596.677 2809.38C611.828 2825.98 619.404 2846.18 619.404 2869.99C619.404 2893.8 611.828 2914 596.677 2930.59C582.247 2947.19 563.128 2955.48 539.318 2955.48C516.23 2955.48 497.111 2947.19 481.959 2930.59C466.808 2914 459.232 2893.8 459.232 2869.99ZM-136.001 2745.53L-115.439 2745.53L-111.11 2761.76C-106.781 2776.19 -100.287 2785.93 -91.6293 2790.98C-82.9714 2796.03 -71.4275 2798.92 -56.9976 2799.64L142.135 2799.64C164.501 2799.64 185.064 2799.64 203.823 2799.64C223.303 2799.64 243.144 2799.28 263.346 2798.56C277.776 2798.56 288.959 2795.67 296.896 2789.9C305.554 2784.85 311.326 2775.11 314.212 2760.68L317.458 2745.53L336.939 2745.53L399.709 2934.92L387.804 2947.91L234.126 2944.66L-58.0798 2944.66C-72.5097 2944.66 -84.0536 2947.19 -92.7116 2952.24C-101.37 2958.01 -107.863 2967.75 -112.192 2981.46L-115.439 2993.36L-136.001 2993.36L-136.001 2745.53ZM-151.153 3198.35C-151.153 3157.23 -139.609 3122.24 -116.521 3093.38C-92.7116 3065.24 -58.8013 3051.17 -14.7901 3051.17C19.8417 3051.17 51.5875 3067.76 80.4473 3100.95C110.029 3134.86 131.673 3187.89 145.382 3260.04C148.268 3272.31 150.793 3286.38 152.958 3302.25C155.844 3318.84 158.729 3335.08 161.615 3350.95L238.455 3350.95C287.516 3350.95 321.427 3344.82 340.186 3332.55C358.944 3320.29 368.324 3300.81 368.324 3274.11L368.324 3270.86C368.324 3254.27 362.913 3240.92 352.09 3230.82C341.989 3221.44 325.034 3215.31 301.225 3212.42L287.156 3209.18C258.296 3207.01 237.012 3199.44 223.303 3186.45C210.316 3173.46 203.823 3157.23 203.823 3137.75C203.823 3119.71 209.234 3104.56 220.057 3092.3C231.601 3080.75 246.391 3074.98 264.429 3074.98C294.01 3074.98 318.901 3085.08 339.103 3105.28C359.305 3125.48 374.457 3152.18 384.558 3185.37C394.658 3219.28 399.709 3255.71 399.709 3294.67C399.709 3358.89 384.197 3407.95 353.172 3441.86C322.148 3475.77 271.643 3492.72 201.658 3492.72L-39.6817 3492.72C-70.706 3492.72 -86.2182 3507.52 -86.2182 3537.1L-86.2182 3561.99L-98.1228 3572.81C-114.717 3559.82 -127.343 3545.39 -136.001 3529.52C-145.381 3513.65 -150.07 3492 -150.07 3464.59C-150.07 3433.56 -142.855 3408.67 -128.426 3389.91C-113.274 3371.87 -93.4331 3359.97 -68.9022 3354.2C-93.4331 3331.11 -113.274 3308.38 -128.426 3286.02C-143.577 3263.65 -151.153 3234.43 -151.153 3198.35ZM-81.8892 3261.12C-81.8892 3275.55 -78.6424 3289.26 -72.1489 3302.25C-65.6555 3315.24 -54.8331 3331.47 -39.6817 3350.95L133.477 3350.95C130.591 3332.19 126.984 3313.07 122.655 3293.59C115.44 3262.57 102.092 3237.32 82.6117 3217.84C63.1314 3199.08 36.7968 3189.7 3.60801 3189.7C-25.2518 3189.7 -46.8966 3196.19 -61.3266 3209.18C-75.0349 3222.89 -81.8892 3240.2 -81.8892 3261.12Z" stroke="#D94881" stroke-width="2.70425" mask="url(#path-1-outside-1_66_232)"></path></g></svg>